<svg width="90" height="90" viewBox="0 0 90 90" fill="none" xmlns="http://www.w3.org/2000/svg">
  <path d="M40.2499 27.9375C39.5968 27.9375 39.0624 28.4719 39.0624 29.125V33.875C39.0624 34.5281 39.5968 35.0625 40.2499 35.0625C40.9031 35.0625 41.4374 34.5281 41.4374 33.875V29.125C41.4374 28.4719 40.9031 27.9375 40.2499 27.9375Z" fill="#939597"/>
  <path d="M30.7499 27.9375C30.0968 27.9375 29.5624 28.4719 29.5624 29.125V33.875C29.5624 34.5281 30.0968 35.0625 30.7499 35.0625C31.4031 35.0625 31.9374 34.5281 31.9374 33.875V29.125C31.9374 28.4719 31.4031 27.9375 30.7499 27.9375Z" fill="#939597"/>
  <path d="M49.75 27.9375C49.0969 27.9375 48.5625 28.4719 48.5625 29.125V33.875C48.5625 34.5281 49.0969 35.0625 49.75 35.0625C50.4031 35.0625 50.9375 34.5281 50.9375 33.875V29.125C50.9375 28.4719 50.4031 27.9375 49.75 27.9375Z" fill="#939597"/>
  <path d="M59.25 27.9375C58.5969 27.9375 58.0625 28.4719 58.0625 29.125V33.875C58.0625 34.5281 58.5969 35.0625 59.25 35.0625C59.9031 35.0625 60.4375 34.5281 60.4375 33.875V29.125C60.4375 28.4719 59.9031 27.9375 59.25 27.9375Z" fill="#939597"/>
  <path d="M40.2499 61.1875C40.9031 61.1875 41.4374 60.6531 41.4374 60V55.25C41.4374 54.5969 40.9031 54.0625 40.2499 54.0625C39.5968 54.0625 39.0624 54.5969 39.0624 55.25V60C39.0624 60.6531 39.5968 61.1875 40.2499 61.1875Z" fill="#939597"/>
  <path d="M30.7499 61.1875C31.4031 61.1875 31.9374 60.6531 31.9374 60V55.25C31.9374 54.5969 31.4031 54.0625 30.7499 54.0625C30.0968 54.0625 29.5624 54.5969 29.5624 55.25V60C29.5624 60.6531 30.0968 61.1875 30.7499 61.1875Z" fill="#939597"/>
  <path d="M49.75 61.1875C50.4031 61.1875 50.9375 60.6531 50.9375 60V55.25C50.9375 54.5969 50.4031 54.0625 49.75 54.0625C49.0969 54.0625 48.5625 54.5969 48.5625 55.25V60C48.5625 60.6531 49.0969 61.1875 49.75 61.1875Z" fill="#939597"/>
  <path d="M59.25 61.1875C59.9031 61.1875 60.4375 60.6531 60.4375 60V55.25C60.4375 54.5969 59.9031 54.0625 59.25 54.0625C58.5969 54.0625 58.0625 54.5969 58.0625 55.25V60C58.0625 60.6531 58.5969 61.1875 59.25 61.1875Z" fill="#939597"/>
  <path d="M79.4375 38.625H78.0957L72.277 25.5269C71.327 23.3894 69.2011 22 66.85 22H23.15C20.8105 22 18.673 23.3894 17.723 25.5269L11.9043 38.625H10.5625C8.60306 38.625 7 40.2281 7 42.1875V46.9375C7 48.897 8.60306 50.5 10.5625 50.5H11.9043L17.723 63.5981C18.673 65.7356 20.7989 67.125 23.15 67.125H66.85C69.1895 67.125 71.327 65.7356 72.277 63.5981L78.0957 50.5H79.4375C81.3969 50.5 83 48.897 83 46.9375V42.1875C83 40.2281 81.3969 38.625 79.4375 38.625ZM19.8955 26.4886C20.4654 25.2062 21.7477 24.375 23.1495 24.375H66.8496C68.2507 24.375 69.5331 25.2063 70.1036 26.4886L75.4951 38.625H14.5051L19.8966 26.4886H19.8955ZM70.1031 62.6362C69.5332 63.9186 68.2508 64.7498 66.849 64.7498H23.149C21.7479 64.7498 20.4655 63.9185 19.895 62.6362L14.5034 50.4998H75.5057L70.1142 62.6362H70.1031ZM80.624 46.9367C80.624 47.5898 80.0897 48.1242 79.4365 48.1242H10.5615C9.90835 48.1242 9.37397 47.5898 9.37397 46.9367V45.7492H80.624V46.9367ZM80.624 43.3742H9.37397V42.1867C9.37397 41.5336 9.90835 40.9992 10.5615 40.9992H79.4365C80.0897 40.9992 80.624 41.5336 80.624 42.1867V43.3742Z" fill="#939597"/>
</svg>