<svg width="115" height="59" viewBox="0 0 115 59" fill="none" xmlns="http://www.w3.org/2000/svg">
  <path d="M50.3125 7.74609C49.3242 7.74609 48.5156 8.44316 48.5156 9.29513V15.4913C48.5156 16.3432 49.3242 17.0403 50.3125 17.0403C51.3008 17.0403 52.1094 16.3432 52.1094 15.4913V9.29513C52.1094 8.44316 51.3008 7.74609 50.3125 7.74609Z" fill="#939597"/>
  <path d="M35.9375 7.74609C34.9492 7.74609 34.1406 8.44316 34.1406 9.29513V15.4913C34.1406 16.3432 34.9492 17.0403 35.9375 17.0403C36.9258 17.0403 37.7344 16.3432 37.7344 15.4913V9.29513C37.7344 8.44316 36.9258 7.74609 35.9375 7.74609Z" fill="#939597"/>
  <path d="M64.6875 7.74609C63.6992 7.74609 62.8906 8.44316 62.8906 9.29513V15.4913C62.8906 16.3432 63.6992 17.0403 64.6875 17.0403C65.6758 17.0403 66.4844 16.3432 66.4844 15.4913V9.29513C66.4844 8.44316 65.6758 7.74609 64.6875 7.74609Z" fill="#939597"/>
  <path d="M79.0625 7.74609C78.0742 7.74609 77.2656 8.44316 77.2656 9.29513V15.4913C77.2656 16.3432 78.0742 17.0403 79.0625 17.0403C80.0508 17.0403 80.8594 16.3432 80.8594 15.4913V9.29513C80.8594 8.44316 80.0508 7.74609 79.0625 7.74609Z" fill="#939597"/>
  <path d="M50.3125 51.1165C51.3008 51.1165 52.1094 50.4194 52.1094 49.5674V43.3713C52.1094 42.5193 51.3008 41.8223 50.3125 41.8223C49.3242 41.8223 48.5156 42.5193 48.5156 43.3713V49.5674C48.5156 50.4194 49.3242 51.1165 50.3125 51.1165Z" fill="#939597"/>
  <path d="M35.9375 51.1165C36.9258 51.1165 37.7344 50.4194 37.7344 49.5674V43.3713C37.7344 42.5193 36.9258 41.8223 35.9375 41.8223C34.9492 41.8223 34.1406 42.5193 34.1406 43.3713V49.5674C34.1406 50.4194 34.9492 51.1165 35.9375 51.1165Z" fill="#939597"/>
  <path d="M64.6875 51.1165C65.6758 51.1165 66.4844 50.4194 66.4844 49.5674V43.3713C66.4844 42.5193 65.6758 41.8223 64.6875 41.8223C63.6992 41.8223 62.8906 42.5193 62.8906 43.3713V49.5674C62.8906 50.4194 63.6992 51.1165 64.6875 51.1165Z" fill="#939597"/>
  <path d="M79.0625 51.1165C80.0508 51.1165 80.8594 50.4194 80.8594 49.5674V43.3713C80.8594 42.5193 80.0508 41.8223 79.0625 41.8223C78.0742 41.8223 77.2656 42.5193 77.2656 43.3713V49.5674C77.2656 50.4194 78.0742 51.1165 79.0625 51.1165Z" fill="#939597"/>
  <path d="M109.609 21.6864H107.579L98.7744 4.60071C97.3369 1.81246 94.1201 0 90.5625 0H24.4375C20.8975 0 17.6631 1.81246 16.2256 4.60071L7.42094 21.6864H5.39063C2.42568 21.6864 0 23.7775 0 26.3335V32.5297C0 35.0857 2.42568 37.1768 5.39063 37.1768H7.42094L16.2256 54.2625C17.6631 57.0508 20.8799 58.8632 24.4375 58.8632H90.5625C94.1025 58.8632 97.3369 57.0508 98.7744 54.2625L107.579 37.1768H109.609C112.574 37.1768 115 35.0857 115 32.5297V26.3335C115 23.7775 112.574 21.6864 109.609 21.6864ZM19.5129 5.85516C20.3753 4.18235 22.3156 3.09806 24.4368 3.09806H90.5619C92.682 3.09806 94.6224 4.18239 95.4857 5.85516L103.644 21.6864H11.3563L19.5146 5.85516H19.5129ZM95.4849 53.0077C94.6226 54.6805 92.6822 55.7648 90.561 55.7648H24.436C22.3159 55.7648 20.3754 54.6805 19.5121 53.0077L11.3539 37.1764H103.66L95.5017 53.0077H95.4849ZM111.405 32.5286C111.405 33.3806 110.596 34.0776 109.608 34.0776H5.38907C4.40079 34.0776 3.59219 33.3806 3.59219 32.5286V30.9796H111.405V32.5286ZM111.405 27.8815H3.59219V26.3325C3.59219 25.4805 4.40079 24.7834 5.38907 24.7834H109.608C110.596 24.7834 111.405 25.4805 111.405 26.3325V27.8815Z" fill="#939597"/>
</svg>