<svg width="105" height="101" viewBox="0 0 105 101" fill="none" xmlns="http://www.w3.org/2000/svg">
  <path fill-rule="evenodd" clip-rule="evenodd" d="M3.56875 96.9719V89.8298H44.1135C44.5439 89.8298 44.5746 90.3828 44.7229 90.7224C45.7064 92.9656 48.6771 95.0597 51.7237 95.0597C54.0931 95.0597 55.98 94.6451 57.5223 93.3258C58.505 92.4829 59.0862 91.9804 59.6422 90.7941C59.8131 90.4293 59.8484 89.8289 60.285 89.8289H100.83V96.971C100.83 97.2792 100.721 97.5737 100.355 97.5737H4.04191C3.67669 97.5737 3.56729 97.2785 3.56729 96.971L3.56875 96.9719ZM52.1998 68.5029C58.9331 68.5029 64.7831 71.0499 68.1634 73.9095C71.5055 76.7393 73.0117 78.6629 74.5396 82.6998C74.9012 83.6551 75.3858 85.6062 75.3858 86.8116H58.3835C56.1804 86.8116 56.8837 88.8858 56.0764 90.0912C53.9754 93.2263 48.7745 92.3613 47.8885 89.1512C47.79 88.7925 48.0088 86.8116 46.0172 86.8116H29.0149C29.0149 83.4325 31.1666 79.1144 33.5332 76.4512C34.4029 75.4722 35.1542 74.8274 36.1785 73.96C37.9902 72.4281 40.3154 71.0751 42.8764 70.1696C45.4918 69.2449 48.5674 68.503 52.2015 68.503L52.1998 68.5029ZM25.3281 86.8116H14.7463L18.0514 77.5364C18.969 74.7173 20.4217 71.3038 21.4044 68.3018L23.085 63.6877C23.2351 63.3091 23.4023 62.2658 23.9013 62.2658H80.4983C81.0118 62.2658 81.5524 64.3799 81.8498 65.1478C82.2476 66.1727 82.6445 67.2411 82.9708 68.2232C83.6742 70.3501 84.4752 72.2768 85.1857 74.3953L87.4449 80.5332C87.8074 81.6085 88.1618 82.5454 88.5415 83.6291L89.6535 86.8108H79.0717C78.9469 86.3581 78.9975 86.15 78.9198 85.6307C78.3132 81.4356 76.6696 78.2599 73.9349 74.8587C73.068 73.7833 71.9714 72.8112 70.8974 71.8973L68.3363 70.0387C67.9756 69.8131 67.7569 69.6639 67.3717 69.4467C66.0509 68.7056 64.7329 68.0578 63.2557 67.4972C57.9735 65.4942 51.8504 64.8921 46.0148 66.0861C44.1805 66.4624 42.8074 66.9412 41.2443 67.4819C35.521 69.4636 30.8506 73.5814 28.1024 78.1934C26.6939 80.5551 25.9291 82.9247 25.4934 85.5427C25.4075 86.0612 25.4518 86.3564 25.3271 86.81L25.3281 86.8116ZM88.109 54.1192H88.3476C88.3576 54.5368 94.1913 70.4102 94.2203 70.476C94.3667 70.8477 94.4291 71.11 94.5728 71.4832C94.7139 71.8496 94.8296 72.0898 94.9561 72.4676C96.0599 75.7648 97.5544 79.316 98.6662 82.7072L100.116 86.8105H93.4598C93.1018 85.5164 90.9946 80.0608 90.4359 78.4028L84.3002 61.5597C84.0009 60.6893 84.0127 61.0557 84.8173 59.6836C85.2051 59.0235 85.5848 58.4874 85.9672 57.8395C86.3252 57.2369 86.6814 56.6326 87.0376 56.0292C87.3034 55.5787 87.9841 54.5706 88.108 54.1179L88.109 54.1192ZM10.9399 86.8116H4.28341C4.31957 86.433 4.50852 86.1003 4.62425 85.7928L7.18621 78.6057C7.86153 76.5903 8.76646 74.5521 9.41917 72.5489L10.1804 70.4761C11.2598 67.755 12.0689 65.0388 13.1249 62.3032C13.3753 61.653 16.0396 54.6786 16.053 54.1194H16.2917C16.4327 54.6296 19.3889 59.3999 20.0642 60.4897C20.387 61.0113 20.3119 60.9516 20.1266 61.4809L17.853 67.813C17.7029 68.1878 17.6089 68.5105 17.4651 68.8945L14.7694 76.1695C13.8844 78.8862 12.644 81.9103 11.7228 84.6562C11.4715 85.408 11.1487 86.0589 10.9399 86.8116ZM18.6693 51.5034H85.7317L82.1237 57.5057C81.8904 57.9035 81.2359 59.3498 80.7369 59.3498H23.6654C23.1664 59.3498 22.5119 57.9035 22.2786 57.5057C21.8574 56.7952 21.5084 56.204 21.0889 55.4935C20.683 54.8082 20.3377 54.1275 19.8821 53.4966C19.4165 52.8488 19.0847 52.1642 18.6706 51.5034H18.6693ZM14.865 11.7682H44.1135C44.8304 11.7682 44.2184 13.369 46.9386 15.4141C49.1662 17.0899 52.3158 17.4945 55.1564 16.5843C56.7891 16.0612 58.1333 15.0853 59.0292 13.8256C60.0336 12.4137 59.7705 11.7689 60.2849 11.7689H89.5334L88.9422 20.9263C88.9458 21.4808 88.8473 21.5719 88.8201 22.0292L88.7044 24.3459C88.7008 24.8905 88.5941 24.9379 88.5779 25.4465L88.341 28.8653C88.3238 30.5426 88.0517 32.8531 87.992 34.7072L87.8185 36.9749C87.7398 37.4177 87.7678 37.6609 87.7534 38.1275C87.738 38.6353 87.6313 38.682 87.6277 39.2273L87.1549 46.0703C87.1639 46.9123 87.0374 47.5441 87.0374 48.4856H17.3598L14.8638 11.7677L14.865 11.7682ZM13.556 3.01622H90.8431C91.5763 3.01622 91.5274 3.39482 91.8384 4.18643L93.5778 8.85111H70.0341C66.2381 8.85111 61.999 8.69967 58.2581 8.84652C56.2068 8.9276 56.9002 10.6339 56.1264 11.974C54.5416 14.7128 49.8251 14.6218 48.3109 12.0405C48.1174 11.7117 48.0243 11.5419 47.9113 11.1702C47.7748 10.7197 48.0406 8.9224 46.1394 8.84663C42.3994 8.69978 38.1596 8.85122 34.3634 8.85122H10.8197L12.8185 3.50046C12.9622 3.15476 13.0346 3.01707 13.5544 3.01707L13.556 3.01622ZM7.01613 9.15331C7.01613 10.39 8.33512 11.7682 9.75167 11.7682H11.1782C11.1782 12.5322 11.3392 13.6566 11.4088 14.3885L13.0975 38.411C13.3389 40.2359 13.2765 42.164 13.5224 43.6838L13.8804 49.0162C14.0685 50.1305 12.6708 53.3627 12.1727 54.6575L10.9839 57.8766C8.81691 63.4523 6.8859 69.5013 4.68104 75.1786C3.59078 77.9832 2.68944 80.9623 1.53054 83.8801C1.25752 84.5684 1.02157 85.2836 0.756671 86.0423C0.558687 86.6113 0 87.7509 0 88.3208V97.2732C0 98.9819 1.97804 100.593 3.68581 100.593H100.712C101.591 100.593 102.576 100.127 103.198 99.5769C103.822 99.0277 104.398 98.282 104.398 97.2731V88.3207C104.398 87.8373 102.432 82.6739 102.094 81.8196L100.543 77.4976C100.29 76.7473 100.031 76.0352 99.7753 75.3301L93.4724 58.028C92.8803 56.3898 90.3733 50.3077 90.489 49.1958L91.2692 38.5845C91.3524 38.1058 91.2791 37.6966 91.3234 37.2239C91.3686 36.7619 91.4274 36.5111 91.4319 35.9084C91.4382 35.3347 91.5612 35.2147 91.5585 34.6066C91.5558 33.9619 91.6444 33.698 91.6751 33.1948C91.7284 32.3098 91.695 31.3691 91.8098 30.4941C91.8993 29.8157 92.0376 28.5996 92.0304 27.8638C92.0241 27.128 92.1615 25.9135 92.251 25.2334L92.627 19.8192C92.6243 19.0926 92.7283 17.8039 92.8305 17.1736L93.2192 11.7692H94.6458C96.0624 11.7692 97.3813 10.391 97.3813 9.15433C97.3813 8.62277 95.7188 4.48122 95.4051 3.68413C94.831 2.22712 94.1087 0 91.1986 0H13.1986C10.3798 0 9.60955 2.11481 9.02287 3.60855C8.70284 4.41774 7.015 8.62508 7.015 9.15433L7.01613 9.15331Z" fill="#939597"/>
  <path fill-rule="evenodd" clip-rule="evenodd" d="M64.5651 82.0833C64.5651 80.1384 67.8948 79.9877 67.8948 82.1828C67.8948 83.8256 64.5651 83.9319 64.5651 82.0833ZM60.9987 81.6795C60.9987 82.7893 60.9499 83.0065 61.5538 84.0283C62.1152 84.9836 62.9261 85.6666 64.0915 86.1063C66.0939 86.8627 68.3874 86.4734 69.891 85.2795C72.9276 82.8665 71.5029 77.5547 66.1121 77.5547C64.0726 77.5547 62.459 78.5842 61.5233 80.0106C61.2792 80.3823 60.9998 81.1433 60.9998 81.6794L60.9987 81.6795Z" fill="#939597"/>
  <path fill-rule="evenodd" clip-rule="evenodd" d="M38.4086 80.5742C38.4086 79.3772 40.1661 78.5773 41.2997 79.5371C42.8836 80.8771 40.5014 82.8848 38.9175 81.5524C38.6997 81.3681 38.4086 80.8855 38.4086 80.5742ZM34.8404 80.4748C34.8404 84.3142 40.28 86.6684 43.9089 83.6197C47.4111 80.6743 44.2822 76.1504 40.666 76.1504C38.7504 76.1504 37.7849 76.2016 36.294 77.4804C35.531 78.1352 34.8404 79.2051 34.8404 80.4748Z" fill="#939597"/>
  <path fill-rule="evenodd" clip-rule="evenodd" d="M52.0793 75.4443C52.0793 73.5636 55.4152 73.5269 55.4893 75.3556C55.5706 77.3481 52.0793 77.166 52.0793 75.4443ZM48.5129 75.3434C48.5129 76.74 49.1801 77.7703 50.0263 78.4891C53.4571 81.4039 59.0948 79.3059 59.0948 75.3434C59.0948 72.8646 56.4613 70.918 53.8632 70.918C51.0083 70.918 48.5132 72.918 48.5132 75.3434H48.5129Z" fill="#939597"/>
  <path fill-rule="evenodd" clip-rule="evenodd" d="M61.4734 74.5403C61.4734 76.7399 65.2777 76.5022 65.2777 74.8432V74.3399C65.2777 73.1231 63.1225 72.4187 62.0457 73.4145C61.8251 73.6187 61.4744 74.1977 61.4744 74.5403H61.4734Z" fill="#939597"/>
  <path fill-rule="evenodd" clip-rule="evenodd" d="M50.2972 84.7995C50.2972 87.2264 54.1022 87.2011 54.1022 84.7995C54.1022 84.0706 53.2777 83.3906 51.9624 83.3906C51.2201 83.3906 50.2972 84.1723 50.2972 84.7995Z" fill="#939597"/>
  <path fill-rule="evenodd" clip-rule="evenodd" d="M46.016 73.2322C46.016 72.0865 45.6643 71.4219 43.8761 71.4219C43.1619 71.4219 42.5843 71.971 42.3763 72.4712C42.0988 73.1343 42.3465 73.7103 42.8274 74.1202C43.3409 74.557 43.9213 74.7252 44.7711 74.4996C45.3669 74.342 46.0151 73.8227 46.0151 73.2322H46.016Z" fill="#939597"/>
</svg>