<svg width="226" height="126" viewBox="0 0 226 126" fill="none" xmlns="http://www.w3.org/2000/svg">
  <path d="M112.5 22C89.5796 22 71 40.5796 71 63.5C71 86.4205 89.5796 105 112.5 105C135.42 105 154 86.4205 154 63.5C154 40.5796 135.42 22 112.5 22Z" stroke="#939597" stroke-width="3.5" stroke-linecap="round" stroke-linejoin="round"/>
  <path d="M95.8999 101.549V71.802L112.5 42.752L129.1 71.802V101.549" stroke="#939597" stroke-width="3.5" stroke-linecap="round" stroke-linejoin="round"/>
  <path d="M95.8999 71.7988C95.8999 71.7988 100.577 75.9488 104.2 75.9488C107.823 75.9488 112.5 71.7988 112.5 71.7988C112.5 71.7988 117.177 75.9488 120.8 75.9488C124.423 75.9488 129.1 71.7988 129.1 71.7988" stroke="#939597" stroke-width="3.5" stroke-linecap="round" stroke-linejoin="round"/>
</svg>