<svg width="90" height="90" viewBox="0 0 90 90" fill="none" xmlns="http://www.w3.org/2000/svg">
  <path d="M19.0007 30.9176V73.5547C19.0022 74.4682 19.3654 75.3438 20.011 75.9893C20.6571 76.6354 21.5327 76.9991 22.4461 77.0001H38.2171H38.2166C39.1301 76.9991 40.0062 76.6359 40.6517 75.9898C41.2978 75.3437 41.6615 74.4681 41.6625 73.5546V30.9176C41.6645 29.4658 41.1107 28.0679 40.1144 27.0117L39.2308 26.0722V26.0717C39.6679 26.0388 40.0057 25.6751 40.0066 25.237V23.6361C40.0057 22.8712 39.7013 22.1383 39.161 21.5975C38.6202 21.0567 37.8868 20.7524 37.1224 20.7519H28.2953L29.5031 10.4204C29.552 9.99981 29.9078 9.68301 30.3313 9.68301C30.7544 9.68301 31.1106 9.99982 31.1595 10.4204L32.0705 18.2129V18.2124C32.093 18.4369 32.2052 18.6425 32.3808 18.7837C32.5565 18.9243 32.7815 18.9892 33.005 18.9633C33.229 18.9368 33.4331 18.8221 33.5712 18.6445C33.7099 18.4663 33.7713 18.2408 33.7419 18.0173L32.8309 10.2253C32.7341 9.40113 32.2377 8.67774 31.5037 8.291C30.7698 7.90426 29.8923 7.90435 29.1584 8.291C28.424 8.67765 27.9281 9.40107 27.8312 10.2253L26.6009 20.7518H23.5401C22.7758 20.7523 22.0423 21.0566 21.5015 21.5975C20.9607 22.1383 20.6569 22.8712 20.6559 23.636V25.237C20.6569 25.675 20.9951 26.0387 21.4322 26.0712L20.5486 27.0106V27.0111C19.5518 28.0673 18.998 29.4653 19 30.9176L19.0007 30.9176ZM39.9801 73.5547H39.9806C39.9796 74.5275 39.1909 75.3163 38.2174 75.3173H22.4465C21.4731 75.3163 20.6848 74.5276 20.6838 73.5547V30.9176C20.6838 30.5465 20.7352 30.1768 20.837 29.8195H28.2453C28.7098 29.8195 29.0864 29.4429 29.0864 28.9779C29.0864 28.5134 28.7098 28.1367 28.2453 28.1367H21.8014L23.7366 26.0788H36.9263L38.8616 28.1367H36.7617H36.7622C36.2972 28.1367 35.9206 28.5134 35.9206 28.9779C35.9206 29.4429 36.2972 29.8195 36.7622 29.8195H39.827C39.9288 30.1768 39.9802 30.5464 39.9802 30.9176L39.9801 73.5547ZM22.3393 23.6363C22.3403 22.9732 22.8777 22.4354 23.5407 22.4349H37.1225C37.7856 22.4354 38.3229 22.9732 38.3239 23.6363V24.3961H22.3396L22.3393 23.6363Z" fill="#939597"/>
  <path d="M47.5348 30.9175V73.5545C47.5358 74.468 47.8995 75.3436 48.5451 75.9897C49.1912 76.6352 50.0668 76.9989 50.9802 77H66.7512C67.6647 76.999 68.5403 76.6352 69.1863 75.9897C69.8324 75.3436 70.1956 74.468 70.1966 73.5545V30.9175C70.1991 29.4657 69.6448 28.0678 68.6485 27.0116L67.7649 26.0721V26.0716C68.202 26.0392 68.5402 25.6755 68.5412 25.2369V23.6359C68.5402 22.8711 68.2359 22.1382 67.6951 21.5974C67.1548 21.0566 66.4214 20.7527 65.6565 20.7517H56.8299L58.0372 10.4203C58.0861 9.9997 58.4423 9.6829 58.8654 9.6829C59.2885 9.6829 59.6447 9.99971 59.6936 10.4203L60.6365 18.4852C60.6595 18.7092 60.7713 18.9148 60.9469 19.056C61.1225 19.1972 61.3475 19.2615 61.5715 19.2356C61.795 19.2096 61.9991 19.0944 62.1373 18.9168C62.276 18.7392 62.3373 18.5131 62.3079 18.2896L61.365 10.2247C61.2687 9.40051 60.7727 8.6766 60.0383 8.28999C59.3044 7.90334 58.4269 7.90334 57.6925 8.28999C56.9586 8.67664 56.4622 9.40056 56.3658 10.2247L55.135 20.7507H52.0742H52.0747C51.3099 20.7517 50.5769 21.056 50.0361 21.5968C49.4954 22.1377 49.191 22.8706 49.1905 23.6354V25.2364C49.191 25.6744 49.5288 26.0381 49.9658 26.071L49.0822 27.0105V27.011C48.0859 28.0677 47.5321 29.4657 47.5341 30.9175L47.5348 30.9175ZM68.5142 73.5545C68.5132 74.5274 67.7244 75.3162 66.7515 75.3172H50.9806C50.0077 75.3162 49.2189 74.5274 49.2179 73.5545V30.9175C49.2184 30.5463 49.2698 30.1766 49.3716 29.8194H56.7799H56.7794C57.2444 29.8194 57.621 29.4427 57.621 28.9778C57.621 28.5133 57.2444 28.1366 56.7794 28.1366H50.336L52.2712 26.0786H65.4609L67.3962 28.1366H65.2967C64.8317 28.1366 64.455 28.5133 64.455 28.9778C64.455 29.4427 64.8317 29.8194 65.2967 29.8194H68.361C68.4623 30.1766 68.5141 30.5463 68.5141 30.9175L68.5142 73.5545ZM50.8734 23.6349C50.8739 22.9718 51.4117 22.4345 52.0748 22.4335H65.6566C66.3197 22.4345 66.857 22.9718 66.858 23.6349V24.3947H50.8737L50.8734 23.6349Z" fill="#939597"/>
  <path d="M66.1386 51.1983C65.9391 48.578 64.6884 47.1726 63.2989 46.4232V46.4227C63.6396 46.2471 63.9659 46.0446 64.2743 45.8161C64.4549 45.6833 64.5751 45.4843 64.608 45.2628C64.6415 45.0413 64.5851 44.8157 64.4514 44.6361C64.3177 44.456 64.1176 44.3373 63.8961 44.3054C63.6746 44.2734 63.449 44.3308 63.2699 44.4655C62.4178 45.0757 61.425 45.4604 60.3842 45.5836C60.6072 44.929 60.9709 44.1871 61.4948 43.8703C61.8904 43.6294 62.0166 43.1135 61.7767 42.7169C61.5367 42.3202 61.0218 42.192 60.6242 42.4305C58.9769 43.4263 58.5218 45.9517 58.4629 46.3285C58.4245 46.5231 58.2379 47.5633 58.4839 48.4069C58.6176 48.8475 59.0816 49.0984 59.5241 48.9697C59.9666 48.841 60.2231 48.38 60.0993 47.9359C60.0499 47.7304 60.0315 47.5189 60.0439 47.3078C60.1268 47.3023 60.2141 47.2958 60.3064 47.2869C61.9872 47.4116 64.2058 48.1824 64.4578 51.2941C64.3885 52.9919 63.4964 54.5494 62.067 55.4685C61.6055 55.7599 61.0263 55.7938 60.5333 55.5583L60.2634 55.4321C59.3774 55.0145 58.3516 55.0145 57.4656 55.4321L57.1962 55.5583C56.7037 55.7938 56.1245 55.7599 55.6625 55.4685C54.2327 54.5495 53.3405 52.9919 53.2722 51.2941C53.4468 49.1273 54.5729 47.8163 56.6204 47.3996C56.6249 47.3996 56.6289 47.3966 56.6334 47.3956V47.3951C56.6823 47.3847 56.7306 47.3697 56.777 47.3507C56.785 47.3472 56.7925 47.3428 56.8005 47.3393C56.8239 47.3283 56.8474 47.3183 56.8703 47.3048C56.8798 47.2994 56.8868 47.2924 56.8958 47.2869C56.9217 47.2704 56.9472 47.2525 56.9711 47.2335C56.9921 47.2175 57.011 47.2021 57.0295 47.1846C57.0494 47.1651 57.0684 47.1447 57.0864 47.1232C57.1038 47.1023 57.1213 47.0828 57.1368 47.0604C57.1522 47.0379 57.1657 47.015 57.1787 46.992L57.1792 46.9915C57.1926 46.9686 57.2056 46.9451 57.2166 46.9207C57.2281 46.8957 57.2375 46.8698 57.246 46.8433C57.254 46.8169 57.2625 46.7945 57.269 46.769C57.275 46.7421 57.2794 46.7146 57.2829 46.6877C57.2864 46.6607 57.2899 46.6338 57.2909 46.6064C57.2924 46.5789 57.2909 46.555 57.2889 46.529V46.5285C57.2879 46.4981 57.2849 46.4682 57.2799 46.4382C57.2785 46.4278 57.2799 46.4173 57.277 46.4068C57.274 46.3918 57.2675 46.3784 57.2635 46.3634V46.3629C57.256 46.3345 57.2475 46.3065 57.237 46.2791C57.2266 46.2511 57.2146 46.2242 57.2006 46.1978C57.1941 46.1843 57.1901 46.1703 57.1827 46.1568C57.1722 46.1389 57.1602 46.1224 57.1502 46.105C57.1487 46.1025 57.1472 46.0995 57.1452 46.097C56.575 45.1401 55.7223 44.3842 54.7046 43.9333C54.2816 43.7417 53.7831 43.9298 53.5916 44.3534C53.4 44.7769 53.5881 45.2753 54.0117 45.4664C54.3848 45.6331 54.7291 45.8571 55.0314 46.131C52.9894 46.9691 51.78 48.7257 51.5919 51.1969C51.5919 51.2138 51.5899 51.2308 51.5894 51.2478C51.5869 51.3949 51.5709 54.8658 54.762 56.8879V56.8884C55.7094 57.4896 56.8993 57.5619 57.9126 57.0795L58.1825 56.9533C58.6151 56.7492 59.117 56.7492 59.5495 56.9533L59.8194 57.0795H59.8199C60.2595 57.287 60.7394 57.3948 61.2259 57.3953C61.8435 57.3953 62.4487 57.2192 62.97 56.8874C66.161 54.8643 66.1445 51.3939 66.1426 51.2473C66.1406 51.2318 66.1401 51.2148 66.1386 51.1983Z" fill="#939597"/>
  <path d="M35.8101 43.5812C35.7926 43.1292 35.4219 42.772 34.9699 42.7715H34.9375C34.7145 42.78 34.5039 42.8768 34.3523 43.0404C34.2001 43.204 34.1198 43.4216 34.1283 43.6446C34.1552 44.36 34.028 46.423 33.1259 47.3665C33.1155 47.3775 33.1085 47.3904 33.0985 47.4014C33.089 47.4129 33.0776 47.4224 33.0676 47.4348C33.0576 47.4468 33.0546 47.4558 33.0466 47.4678V47.4673C33.0292 47.4922 33.0127 47.5182 32.9982 47.5451C32.9863 47.5671 32.9753 47.589 32.9653 47.612V47.6115C32.9528 47.6399 32.9424 47.6688 32.9334 47.6978C32.9264 47.7202 32.9199 47.7427 32.9149 47.7656C32.9079 47.7966 32.9034 47.8275 32.8999 47.8589C32.8979 47.8799 32.896 47.9008 32.8955 47.9238C32.8945 47.9567 32.8955 47.9896 32.8989 48.0226C32.9009 48.0425 32.9029 48.062 32.9059 48.0814L32.9054 48.0819C32.9114 48.1159 32.9194 48.1498 32.9289 48.1827C32.9344 48.2007 32.9399 48.2186 32.9463 48.2366C32.9583 48.2695 32.9723 48.3019 32.9882 48.3334C32.9972 48.3503 33.0062 48.3673 33.0162 48.3838C33.0346 48.4137 33.0551 48.4426 33.0776 48.4701C33.0905 48.486 33.1035 48.502 33.118 48.517C33.1319 48.5324 33.1389 48.5439 33.1514 48.5559C33.1634 48.5679 33.1838 48.5808 33.1998 48.5938C33.2078 48.6003 33.2133 48.6078 33.2207 48.6148L33.2202 48.6153C33.4223 48.7679 33.576 48.976 33.6623 49.2145C33.795 49.657 33.7561 50.1339 33.553 50.5495C31.5189 54.0279 28.9381 55.4817 25.8803 54.8671C25.6927 54.8332 25.5455 54.687 25.5101 54.4994C25.4662 54.3243 25.5371 54.1402 25.6867 54.0394C27.0103 53.0496 28.1793 51.8687 29.1551 50.5346C29.1791 50.5017 29.2 50.4673 29.2185 50.4314C29.7798 49.3333 30.5051 48.6488 31.3758 48.3968H31.3753C31.8218 48.2676 32.0788 47.8006 31.9496 47.3545C31.8203 46.908 31.3534 46.6511 30.9068 46.7803C29.5898 47.162 28.528 48.1124 27.7512 49.6061C27.5387 49.896 26.295 51.5439 24.7134 52.6675H24.7139C24.3721 52.9064 24.1092 53.2412 23.9585 53.6299C23.8079 54.0185 23.7759 54.4431 23.8672 54.8497C23.9511 55.2633 24.1561 55.6425 24.456 55.9393C24.7558 56.2362 25.1375 56.4372 25.5521 56.517C26.0999 56.6283 26.6576 56.6852 27.2169 56.6867C29.6451 56.6867 32.5757 55.5691 35.0243 51.3723V51.3718C35.4674 50.5337 35.5492 49.5513 35.2508 48.6513C35.1531 48.3759 35.0144 48.1164 34.8397 47.8819C35.874 46.219 35.8211 43.8762 35.8101 43.5813L35.8101 43.5812Z" fill="#939597"/>
  <path d="M32.0998 29.8186H33.1031C33.5676 29.8186 33.9442 29.4419 33.9442 28.9769C33.9442 28.5124 33.5676 28.1357 33.1031 28.1357H32.0998C31.6353 28.1357 31.2581 28.5124 31.2581 28.9769C31.2581 29.4419 31.6353 29.8186 32.0998 29.8186Z" fill="#939597"/>
  <path d="M60.6338 29.8186H61.6366C62.1016 29.8186 62.4783 29.4419 62.4783 28.9769C62.4783 28.5124 62.1016 28.1357 61.6366 28.1357H60.6338C60.1689 28.1357 59.7922 28.5124 59.7922 28.9769C59.7922 29.4419 60.1689 29.8186 60.6338 29.8186Z" fill="#939597"/>
</svg>