<svg width="84" height="105" viewBox="0 0 84 105" fill="none" xmlns="http://www.w3.org/2000/svg">
  <path d="M12.5888 3.50144H12.0888V3.54649C10.8929 3.76127 9.996 4.7378 9.996 5.99547V9.99691C9.996 11.4196 11.1457 12.5052 12.5888 12.5052L71.3966 12.5043C72.8346 12.5043 74.0053 11.4236 74.0053 9.99602V5.99458C74.0053 4.5632 72.8296 3.50144 71.3966 3.50144H12.5888ZM6.79443 5.99462C6.79443 3.00362 9.38645 0.500004 12.5888 0.5C12.5888 0.5 12.5888 0.5 12.5888 0.5L71.3966 0.500914C74.6004 0.500914 77.2068 3.00527 77.2068 5.99554V9.99606C77.2068 12.9877 74.5989 15.5058 71.3966 15.5058H12.5888C9.38898 15.5058 6.79443 12.9895 6.79443 9.99606V5.99462Z" fill="#939597" stroke="#939597"/>
  <path d="M0.500114 39.9998L0.500067 39.995C0.497992 39.7809 0.544162 39.569 0.636573 39.374C0.63682 39.3734 0.637068 39.3729 0.637316 39.3724L13.0298 13.8065L15.9286 15.0858L3.75152 40.223L3.7015 40.3262L3.7015 40.4409L3.70056 96.0049C3.70056 98.5348 5.78669 100.506 8.38696 100.506H75.5958C78.1937 100.506 80.2973 98.537 80.2973 96.0049V40.4409V40.3262L80.2473 40.223L68.0703 15.0858L70.9693 13.8065L83.3617 39.3724C83.362 39.3729 83.3622 39.3734 83.3625 39.374C83.4554 39.57 83.502 39.782 83.4999 39.995V39.9998V96.0072C83.4999 100.104 79.9591 103.51 75.5969 103.51H8.388C4.02721 103.51 0.50009 100.105 0.50009 96.0072L0.500114 39.9998Z" fill="#939597" stroke="#939597"/>
  <path d="M55.1041 39.9998L55.1041 39.995C55.102 39.782 55.1486 39.57 55.2415 39.374C55.2417 39.3735 55.242 39.3729 55.2423 39.3724L67.6346 13.8068L70.5328 15.0879L58.3556 40.2253L58.3056 40.3286V40.4433V101.517H55.1041L55.1041 39.9998Z" fill="#939597" stroke="#939597"/>
  <path d="M70.8968 85.5087L70.8969 86.0087C70.0915 86.0084 68.5159 86.0079 67.7105 86.0082V85.5082M70.8968 85.5087L71.2169 85.5088L71.35 85.5089L71.385 85.5089L71.394 85.5089H71.3963H71.3968L71.3959 52.0044C71.4006 50.8998 70.4641 50.0006 69.3033 49.9961M70.8968 85.5087L70.8959 52.0044V52.0023H70.8959C70.8993 51.1973 70.2102 50.5005 69.3031 50.4961M70.8968 85.5087L70.7419 85.5086L69.301 85.5082C68.7772 85.5081 68.2536 85.5081 67.8613 85.5081L67.7105 85.5082M69.3033 49.9961C68.1425 49.9997 67.2058 50.8989 67.2105 52.0044V85.5088L67.2186 85.5087L67.2548 85.5086L67.3877 85.5084L67.7105 85.5082M69.3033 49.9961L69.3013 50.4961C69.3019 50.4961 69.3025 50.4961 69.3031 50.4961M69.3033 49.9961L69.3048 50.4961C69.3042 50.4961 69.3036 50.4961 69.3031 50.4961M67.7105 85.5082V52.0044H67.7105L67.7105 52.0023C67.707 51.1962 68.3964 50.4998 69.3031 50.4961" fill="#939597" stroke="#939597"/>
  <path d="M55.7423 100.706L69.3418 83.4509L80.8064 98.7243L78.208 100.494L69.6576 89.0934L69.267 88.5725L68.8646 89.0843L58.292 102.529L55.7423 100.706Z" fill="#939597" stroke="#939597"/>
</svg>