<svg width="226" height="126" viewBox="0 0 226 126" fill="none" xmlns="http://www.w3.org/2000/svg">
  <path d="M160.358 75.4386C161.608 71.2521 163.029 66.4783 160.413 61.1552C158.786 57.8022 156.53 55.8132 153.707 55.2259C150.221 54.5061 146.906 56.2868 145.279 57.3855C130.501 46.4741 129.84 27.8338 129.84 27.6443C129.821 26.9813 129.461 26.3941 128.933 26.072V9.89434C128.933 8.85245 128.08 8 127.039 8H121.581C120.539 8 119.687 8.85245 119.687 9.89434V25.7879H106.199V9.89434C106.199 8.85245 105.346 8 104.305 8H98.8488C97.8069 8 96.9545 8.85245 96.9545 9.89434V26.072C96.4241 26.3941 96.0641 26.9813 96.0452 27.6443C96.0452 27.8338 95.439 46.4362 80.6063 57.3855C78.9772 56.2868 75.6621 54.5061 72.1765 55.2259C69.3539 55.8132 67.0997 57.8022 65.4705 61.1552C62.8563 66.4783 64.2771 71.2521 65.5274 75.4386C66.8345 79.7955 67.9521 83.5653 65.3 88.017C64.7696 88.9073 65.0727 90.0629 65.9631 90.6122C66.2661 90.7827 66.6071 90.8774 66.9292 90.8774C67.5732 90.8774 68.1984 90.5365 68.5583 89.9492C72.0628 84.0768 70.5284 78.9052 69.1645 74.3588C67.9521 70.3238 66.9102 66.8193 68.8803 62.8222C69.9601 60.5869 71.324 59.2798 72.9153 58.9388C75.3969 58.4463 78.03 60.1891 78.9014 60.8142V116.167C78.9014 117.209 79.7539 118.061 80.7957 118.061H145.09C146.132 118.061 146.984 117.209 146.984 116.167V60.8142C147.836 60.1891 150.47 58.4274 152.951 58.9388C154.561 59.2798 155.925 60.568 157.005 62.8222C158.975 66.8193 157.933 70.3238 156.723 74.3588C155.357 78.9052 153.824 84.0768 157.327 89.9492C157.687 90.5365 158.314 90.8774 158.956 90.8774C159.278 90.8774 159.619 90.7827 159.922 90.6122C160.813 90.0629 161.116 88.9073 160.587 88.017C157.933 83.5653 159.051 79.7955 160.358 75.4386ZM123.475 11.7887H125.144V25.7879H123.475V11.7887ZM100.743 11.7887H102.41V25.7879H100.743V11.7887ZM143.195 114.273H82.6901V60.5869C96.4619 50.528 99.1709 34.9375 99.7202 29.5765H126.184C126.713 34.9375 129.423 50.528 143.193 60.5869L143.195 114.273Z" fill="#939597"/>
  <path d="M108.491 87.5234H91.5936C90.5517 87.5234 89.6992 88.3569 89.6992 89.4178V99.6662C89.6992 105.368 94.3404 110.009 100.042 110.009C105.744 110.009 110.385 105.368 110.385 99.6662V89.4178C110.385 88.3569 109.533 87.5234 108.491 87.5234ZM106.597 99.6662C106.597 103.284 103.661 106.221 100.042 106.221C96.4241 106.221 93.4879 103.284 93.4879 99.6662V96.5026H106.597V99.6662ZM106.597 92.7139H93.4879V91.3121H106.597V92.7139Z" fill="#939597"/>
  <path d="M134.292 87.5234H117.395C116.353 87.5234 115.5 88.3569 115.5 89.4178V99.6662C115.5 105.368 120.141 110.009 125.843 110.009C131.547 110.009 136.186 105.368 136.186 99.6662V89.4178C136.186 88.3569 135.334 87.5234 134.292 87.5234ZM132.398 99.6662C132.398 103.284 129.462 106.221 125.843 106.221C122.227 106.221 119.289 103.284 119.289 99.6662V96.5026H132.398V99.6662ZM132.398 92.7139H119.289V91.3121H132.398V92.7139Z" fill="#939597"/>
</svg>