<svg width="90" height="90" viewBox="0 0 90 90" fill="none" xmlns="http://www.w3.org/2000/svg">
  <path d="M44.5 4C21.5796 4 3 22.5796 3 45.5C3 68.4205 21.5796 87 44.5 87C67.4205 87 86 68.4205 86 45.5C86 22.5796 67.4205 4 44.5 4Z" stroke="#939597" stroke-width="3.5" strokeLinecap="round" strokeLinejoin="round"/>
  <path d="M27.8999 83.5492V53.802L44.4999 24.752L61.0999 53.802V83.5492" stroke="#939597" stroke-width="3.5" stroke-linecap="round" stroke-linejoin="round"/>
  <path d="M27.8999 53.7988C27.8999 53.7988 32.577 57.9488 36.1999 57.9488C39.8229 57.9488 44.4999 53.7988 44.4999 53.7988C44.4999 53.7988 49.177 57.9488 52.7999 57.9488C56.4229 57.9488 61.0999 53.7988 61.0999 53.7988" stroke="#939597" stroke-width="3.5" stroke-linecap="round" stroke-linejoin="round"/>
</svg>