<svg width="83" height="96" viewBox="0 0 83 96" fill="none" xmlns="http://www.w3.org/2000/svg">
  <path d="M0.00116037 31.7167V90.7229C0.00356319 91.9871 0.586638 93.1989 1.62303 94.0922C2.66023 94.9863 4.06583 95.4896 5.53225 95.491H30.8501H30.8493C32.3158 95.4897 33.7222 94.987 34.7585 94.0929C35.7957 93.1987 36.3795 91.987 36.3812 90.7229V31.7167C36.3844 29.7075 35.4954 27.773 33.8959 26.3112L32.4775 25.0111V25.0104C33.1791 24.9648 33.7213 24.4615 33.7229 23.8553V21.6396C33.7213 20.5812 33.2328 19.5668 32.3654 18.8184C31.4972 18.07 30.3198 17.6488 29.0928 17.6481H14.9221L16.8612 3.35023C16.9396 2.76818 17.5107 2.32975 18.1907 2.32975C18.8699 2.32975 19.4417 2.7682 19.5202 3.35023L20.9827 14.1344V14.1337C21.0187 14.4444 21.199 14.7289 21.4809 14.9243C21.7628 15.119 22.124 15.2088 22.4828 15.1728C22.8424 15.1363 23.17 14.9774 23.3919 14.7316C23.6145 14.4852 23.713 14.1731 23.6658 13.8637L22.2033 3.08027C22.0479 1.93965 21.251 0.938532 20.0728 0.403317C18.8945 -0.131897 17.4858 -0.131773 16.3077 0.403317C15.1287 0.938408 14.3326 1.93957 14.1772 3.08027L12.2021 17.6481H7.28842C6.0614 17.6488 4.88396 18.0699 4.01584 18.8184C3.14764 19.5668 2.65988 20.5811 2.65828 21.6396V23.8552C2.65988 24.4614 3.20289 24.9647 3.90451 25.0096L2.48607 26.3097V26.3104C0.885826 27.7721 -0.00327153 29.7068 9.0462e-06 31.7167L0.00116037 31.7167ZM33.6804 90.7229H33.6812C33.6796 92.0693 32.4133 93.1609 30.8506 93.1623H5.5328C3.9702 93.1609 2.70474 92.0693 2.7031 90.7229V31.7167C2.7031 31.203 2.7856 30.6914 2.94898 30.197H14.8419C15.5875 30.197 16.1922 29.6758 16.1922 29.0323C16.1922 28.3895 15.5875 27.8682 14.8419 27.8682H4.49721L7.60391 25.0201H28.778L31.8847 27.8682H28.5137H28.5145C27.768 27.8682 27.1633 28.3895 27.1633 29.0323C27.1633 29.6758 27.768 30.197 28.5145 30.197H33.4345C33.5979 30.6914 33.6804 31.203 33.6804 31.7167L33.6804 90.7229ZM5.3608 21.6399C5.3624 20.7223 6.22498 19.978 7.2894 19.9773H29.0929C30.1573 19.978 31.0199 20.7223 31.0215 21.6399V22.6915H5.36129L5.3608 21.6399Z" fill="#939597"/>
  <path d="M45.8082 31.716V90.7221C45.8098 91.9863 46.3937 93.1981 47.4301 94.0921C48.4673 94.9856 49.8729 95.4889 51.3393 95.4903H76.6572C78.1236 95.4889 79.5293 94.9856 80.5664 94.0921C81.6036 93.198 82.1866 91.9863 82.1882 90.7221V31.716C82.1922 29.7068 81.3024 27.7722 79.703 26.3104L78.2846 25.0103V25.0096C78.9862 24.9647 79.5292 24.4614 79.5308 23.8545V21.6389C79.5292 20.5804 79.0406 19.5661 78.1724 18.8177C77.305 18.0692 76.1277 17.6487 74.8998 17.6474H60.73L62.6682 3.34947C62.7467 2.76741 63.3186 2.32899 63.9978 2.32899C64.677 2.32899 65.2488 2.76743 65.3273 3.34947L66.8411 14.5107C66.8779 14.8207 67.0573 15.1051 67.3392 15.3006C67.6212 15.496 67.9824 15.585 68.342 15.5491C68.7008 15.5132 69.0284 15.3537 69.2502 15.1079C69.4729 14.8621 69.5714 14.5493 69.5241 14.24L68.0104 3.0788C67.8558 1.93819 67.0597 0.936356 65.8807 0.401318C64.7025 -0.133773 63.2938 -0.133773 62.1148 0.401318C60.9366 0.936409 60.1397 1.93826 59.9851 3.0788L58.0092 17.6459H53.0955H53.0963C51.8685 17.6473 50.6919 18.0684 49.8238 18.8169C48.9556 19.5654 48.467 20.5796 48.4662 21.6381V23.8537C48.467 24.4599 49.0092 24.9633 49.7108 25.0088L48.2924 26.309V26.3097C46.6929 27.772 45.8039 29.7067 45.8071 31.7159L45.8082 31.716ZM79.4874 90.7221C79.4858 92.0685 78.2196 93.1601 76.6577 93.1615H51.3399C49.7781 93.1601 48.5118 92.0685 48.5102 90.7221V31.716C48.511 31.2023 48.5935 30.6906 48.7569 30.1963H60.6498H60.649C61.3954 30.1963 62.0001 29.675 62.0001 29.0315C62.0001 28.3887 61.3954 27.8674 60.649 27.8674H50.3051L53.4118 25.0193H74.5859L77.6926 27.8674H74.3222C73.5757 27.8674 72.9711 28.3887 72.9711 29.0315C72.9711 29.675 73.5757 30.1963 74.3222 30.1963H79.2414C79.404 30.6906 79.4873 31.2023 79.4873 31.716L79.4874 90.7221ZM51.1679 21.6374C51.1687 20.7198 52.0321 19.9762 53.0965 19.9748H74.9C75.9644 19.9762 76.827 20.7198 76.8286 21.6374V22.6889H51.1684L51.1679 21.6374Z" fill="#939597"/>
  <path d="M75.6737 59.7824C75.3533 56.1561 73.3455 54.2111 71.1149 53.174V53.1734C71.662 52.9303 72.1858 52.65 72.6807 52.3338C72.9707 52.1501 73.1637 51.8746 73.2165 51.5681C73.2702 51.2615 73.1797 50.9494 72.965 50.7009C72.7504 50.4516 72.4292 50.2873 72.0736 50.2431C71.718 50.1989 71.356 50.2783 71.0685 50.4647C69.7005 51.3091 68.1067 51.8415 66.4359 52.012C66.7939 51.1062 67.3778 50.0794 68.2187 49.641C68.8539 49.3076 69.0565 48.5936 68.6712 48.0447C68.286 47.4958 67.4594 47.3184 66.8211 47.6484C64.1766 49.0266 63.446 52.5215 63.3515 53.043C63.2898 53.3122 62.9903 54.7518 63.3851 55.9193C63.5998 56.529 64.3447 56.8763 65.0551 56.6981C65.7655 56.52 66.1772 55.882 65.9785 55.2675C65.8992 54.983 65.8696 54.6903 65.8896 54.3982C66.0226 54.3906 66.1627 54.3817 66.3109 54.3692C69.0092 54.5418 72.5709 55.6086 72.9754 59.9149C72.8641 62.2645 71.432 64.4201 69.1373 65.692C68.3965 66.0952 67.4666 66.1422 66.6753 65.8163L66.242 65.6416C64.8195 65.0637 63.1728 65.0637 61.7504 65.6416L61.3179 65.8163C60.5274 66.1422 59.5976 66.0952 58.8559 65.692C56.5605 64.4202 55.1283 62.2645 55.0186 59.9149C55.2989 56.9163 57.1067 55.1019 60.3936 54.5253C60.4008 54.5253 60.4073 54.5212 60.4145 54.5198V54.5191C60.493 54.5046 60.5706 54.4839 60.6451 54.4576C60.6579 54.4528 60.6699 54.4466 60.6828 54.4418C60.7204 54.4266 60.7581 54.4128 60.7949 54.3941C60.8101 54.3865 60.8213 54.3769 60.8357 54.3693C60.8774 54.3465 60.9182 54.3216 60.9567 54.2954C60.9903 54.2733 61.0208 54.2519 61.0504 54.2277C61.0824 54.2008 61.1129 54.1725 61.1417 54.1428C61.1697 54.1138 61.1978 54.0869 61.2226 54.0558C61.2474 54.0247 61.269 53.993 61.2899 53.9612L61.2907 53.9605C61.3123 53.9288 61.3331 53.8963 61.3507 53.8625C61.3692 53.8279 61.3844 53.792 61.398 53.7554C61.4108 53.7189 61.4244 53.6878 61.4348 53.6526C61.4444 53.6153 61.4517 53.5773 61.4573 53.54C61.4629 53.5027 61.4685 53.4655 61.4701 53.4275C61.4725 53.3895 61.4701 53.3564 61.4669 53.3205V53.3198C61.4653 53.2777 61.4605 53.2362 61.4525 53.1948C61.4501 53.1803 61.4525 53.1658 61.4476 53.1513C61.4428 53.1306 61.4324 53.1119 61.426 53.0912V53.0905C61.414 53.0512 61.4004 53.0125 61.3836 52.9746C61.3668 52.9359 61.3475 52.8986 61.3251 52.862C61.3147 52.8434 61.3083 52.824 61.2963 52.8054C61.2795 52.7805 61.2602 52.7577 61.2442 52.7336C61.2418 52.7301 61.2394 52.726 61.2362 52.7225C60.3208 51.3983 58.9519 50.3523 57.3182 49.7281C56.639 49.463 55.8389 49.7233 55.5313 50.3095C55.2238 50.8957 55.5257 51.5855 56.2057 51.8499C56.8048 52.0805 57.3574 52.3905 57.8428 52.7696C54.5647 53.9295 52.6232 56.3605 52.3212 59.7804C52.3212 59.8038 52.318 59.8273 52.3172 59.8508C52.3132 60.0545 52.2875 64.8579 57.4103 67.6563V67.657C58.9312 68.489 60.8413 68.5891 62.4681 67.9214L62.9014 67.7467C63.5958 67.4643 64.4015 67.4643 65.0959 67.7467L65.5292 67.9214H65.53C66.2356 68.2087 67.0061 68.3578 67.787 68.3585C68.7786 68.3585 69.7501 68.1148 70.587 67.6556C75.7096 64.8558 75.6832 60.053 75.6801 59.8501C75.6769 59.8287 75.6761 59.8052 75.6737 59.7824Z" fill="#939597"/>
  <path d="M26.986 49.2417C26.958 48.6161 26.3629 48.1218 25.6372 48.1211H25.5852C25.2272 48.1328 24.8892 48.2668 24.6457 48.4933C24.4014 48.7197 24.2725 49.0208 24.2861 49.3294C24.3293 50.3195 24.1251 53.1745 22.677 54.4802C22.6602 54.4954 22.649 54.5134 22.633 54.5285C22.6178 54.5444 22.5993 54.5575 22.5833 54.5748C22.5673 54.5914 22.5625 54.6038 22.5497 54.6204V54.6197C22.5217 54.6542 22.4952 54.6901 22.472 54.7274C22.4528 54.7578 22.4352 54.7881 22.4191 54.8199V54.8192C22.3991 54.8586 22.3823 54.8986 22.3679 54.9387C22.3567 54.9697 22.3463 55.0008 22.3382 55.0326C22.327 55.0754 22.3198 55.1182 22.3142 55.1617C22.311 55.1907 22.3078 55.2197 22.307 55.2514C22.3054 55.297 22.307 55.3426 22.3126 55.3882C22.3158 55.4158 22.319 55.4427 22.3238 55.4696L22.323 55.4703C22.3326 55.5173 22.3455 55.5642 22.3607 55.6098C22.3695 55.6346 22.3783 55.6595 22.3887 55.6844C22.4079 55.7299 22.4304 55.7748 22.456 55.8183C22.4704 55.8418 22.4848 55.8653 22.5008 55.888C22.5305 55.9295 22.5633 55.9695 22.5993 56.0075C22.6202 56.0296 22.641 56.0517 22.6642 56.0724C22.6866 56.0938 22.6979 56.1097 22.7179 56.1262C22.7371 56.1428 22.7699 56.1608 22.7956 56.1787C22.8084 56.1877 22.8172 56.1981 22.8292 56.2077L22.8284 56.2084C23.1528 56.4197 23.3995 56.7076 23.538 57.0376C23.7511 57.6501 23.6886 58.3101 23.3626 58.8853C20.0972 63.699 15.9541 65.711 11.0453 64.8605C10.7441 64.8135 10.5079 64.6112 10.451 64.3516C10.3805 64.1093 10.4943 63.8545 10.7345 63.715C12.8593 62.3451 14.736 60.7109 16.3025 58.8647C16.3409 58.8191 16.3746 58.7715 16.4042 58.7217C17.3052 57.2021 18.4697 56.2548 19.8675 55.906H19.8667C20.5835 55.7272 20.996 55.0809 20.7885 54.4637C20.5811 53.8457 19.8314 53.4901 19.1146 53.669C17.0003 54.1972 15.2958 55.5125 14.0488 57.5797C13.7076 57.9808 11.711 60.2614 9.172 61.8163H9.1728C8.62416 62.147 8.20208 62.6103 7.9602 63.1482C7.71832 63.6861 7.66706 64.2736 7.81363 64.8364C7.94818 65.4087 8.27736 65.9335 8.75872 66.3443C9.24008 66.7551 9.85277 67.0333 10.5183 67.1438C11.3978 67.2978 12.2932 67.3765 13.191 67.3786C17.0891 67.3786 21.7937 65.832 25.7246 60.024V60.0233C26.4358 58.8633 26.5672 57.5038 26.0882 56.2582C25.9312 55.8771 25.7086 55.5181 25.4283 55.1936C27.0886 52.8922 27.0037 49.65 26.9861 49.2419L26.986 49.2417Z" fill="#939597"/>
  <path d="M21.0296 30.1961H22.6403C23.3859 30.1961 23.9906 29.6748 23.9906 29.0313C23.9906 28.3885 23.3859 27.8672 22.6403 27.8672H21.0296C20.284 27.8672 19.6785 28.3885 19.6785 29.0313C19.6785 29.6748 20.284 30.1961 21.0296 30.1961Z" fill="#939597"/>
  <path d="M66.8367 30.1961H68.4466C69.1931 30.1961 69.7978 29.6748 69.7978 29.0313C69.7978 28.3885 69.1931 27.8672 68.4466 27.8672H66.8367C66.0903 27.8672 65.4856 28.3885 65.4856 29.0313C65.4856 29.6748 66.0903 30.1961 66.8367 30.1961Z" fill="#939597"/>
</svg>