<svg width="226" height="126" viewBox="0 0 226 126" fill="none" xmlns="http://www.w3.org/2000/svg">
  <path d="M156.556 32.4768L147.428 51.3402H138.301L148.037 27.6088M156.556 32.4768V20.9153L148.037 27.6088M156.556 32.4768L148.037 27.6088M133.433 27.6088H138.301V19.0898H128.565V27.6088H133.433ZM133.433 27.6088C133.433 33.0853 134.65 41.6042 127.348 41.6042H113.961C111.73 41.8071 107.267 43.308 107.267 47.6892V51.3402" stroke="#939597" stroke-width="3" stroke-linecap="round" stroke-linejoin="round"/>
  <path d="M118.22 51.9481H128.565L117.003 30.6507L121.871 28.2167L109.093 22.7402L104.833 36.7357L110.31 34.3017L118.22 51.9481Z" stroke="#939597" stroke-width="3" stroke-linecap="round" stroke-linejoin="round"/>
  <path d="M95.6413 98.7157L97.4959 98.6047V100.463V114.856C97.4966 115.807 98.222 116.602 99.421 116.602H139.836C140.958 116.602 141.645 115.772 141.645 115.071V90.3026V89.3363L142.463 88.8216C153.918 81.6111 160.463 69.8889 160.245 57.0969H160.245L160.245 57.0863C160.188 51.9801 159.022 47.0068 156.847 42.4142L80.8868 42.0379C79.2489 45.7972 78.1603 49.6571 77.7366 53.243C77.4668 55.7092 76.4051 58.1499 74.6907 60.1057L67.1307 69.2923L67.1238 69.3006L67.1169 69.3089C65.8689 70.7878 65.4516 72.7234 65.9647 74.458L65.9758 74.4954L65.9852 74.5333C66.679 77.3316 69.6487 79.5334 73.072 79.45L75.8163 79.3448L77.5773 79.2774L77.6324 81.0388L77.9764 92.034C78.0713 94.0688 78.9837 95.9314 80.666 97.3097L80.6662 97.31C82.3911 98.7238 84.587 99.4223 86.765 99.2476L86.7826 99.2462L86.8003 99.2451L95.6413 98.7157Z" stroke="#939597" stroke-width="3.5"/>
  <path d="M94.8615 41.3451V36.9416C94.8615 36.365 95.192 35.8395 95.7116 35.5897C99.1772 33.9238 101.202 30.9379 101.291 27.8284C101.262 25.5159 100.122 23.2429 98.0099 21.5555C95.9808 19.9477 93.2423 19.0414 90.3729 19.0834L94.8615 41.3451ZM94.8615 41.3451H86.2668V36.8969C86.2668 36.318 85.9337 35.7908 85.4108 35.5422C81.9326 33.8888 79.9081 30.8978 79.8371 27.7887C79.8658 25.5907 80.9076 23.4259 82.8503 21.7748L82.8504 21.7747C84.8065 20.1118 87.5027 19.1255 90.3729 19.0834L94.8615 41.3451Z" stroke="#939597" stroke-width="3" stroke-linejoin="round"/>
  <path d="M91.6763 14.7057C91.9551 14.7057 92.2224 14.61 92.4196 14.4403C92.6165 14.2703 92.7275 14.0398 92.7275 13.7995V8.90626C92.7275 8.40575 92.2569 8 91.6763 8C91.0956 8 90.625 8.40573 90.625 8.90626V13.7995C90.625 14.0398 90.736 14.2703 90.9329 14.4403C91.1301 14.61 91.3975 14.7057 91.6763 14.7057Z" fill="#939597"/>
  <path d="M70.4956 27.8906H76.1718C76.7523 27.8906 77.2226 27.4849 77.2226 26.9844C77.2226 26.4839 76.7524 26.0781 76.1718 26.0781H70.4956C69.915 26.0781 69.4443 26.4839 69.4443 26.9844C69.4443 27.4849 69.915 27.8906 70.4956 27.8906Z" fill="#939597"/>
  <path d="M80.0086 18.3304C80.1976 18.5079 80.4645 18.6092 80.7444 18.6092C81.0239 18.6092 81.2908 18.5079 81.4802 18.3304C81.686 18.1672 81.8035 17.9371 81.8035 17.6961C81.8035 17.4548 81.686 17.2247 81.4802 17.0618L77.4333 13.6183C77.2504 13.408 76.9706 13.2767 76.6666 13.2581C76.3627 13.2395 76.0645 13.3356 75.8489 13.5211C75.6334 13.7069 75.5223 13.9643 75.5439 14.2263C75.5655 14.4883 75.7178 14.7293 75.9617 14.8869L80.0086 18.3304Z" fill="#939597"/>
  <path d="M102.608 18.602C102.886 18.5986 103.15 18.5011 103.344 18.3304L107.391 14.8869C107.635 14.7293 107.787 14.4883 107.809 14.2263C107.83 13.9643 107.719 13.7069 107.504 13.5211C107.288 13.3356 106.99 13.2395 106.686 13.2581C106.382 13.2767 106.102 13.408 105.919 13.6183L101.872 17.0618C101.667 17.2247 101.549 17.4548 101.549 17.6961C101.549 17.9371 101.667 18.1672 101.872 18.3304C102.067 18.5011 102.331 18.5986 102.608 18.602Z" fill="#939597"/>
</svg>