<svg width="98" height="111" viewBox="0 0 98 111" fill="none" xmlns="http://www.w3.org/2000/svg">
  <path d="M96.3581 67.4386C97.6083 63.2521 99.0291 58.4783 96.413 53.1552C94.7858 49.8022 92.5296 47.8132 89.707 47.2259C86.2215 46.5061 82.9064 48.2868 81.2791 49.3855C66.5014 38.4741 65.8402 19.8338 65.8402 19.6443C65.8213 18.9813 65.4614 18.3941 64.9329 18.072V1.89434C64.9329 0.852454 64.0804 0 63.0385 0H57.5809C56.539 0 55.6866 0.852454 55.6866 1.89434V17.7879H42.1989V1.89434C42.1989 0.852454 41.3464 0 40.3045 0H34.8488C33.8069 0 32.9545 0.852454 32.9545 1.89434V18.072C32.4241 18.3941 32.0641 18.9813 32.0452 19.6443C32.0452 19.8338 31.439 38.4362 16.6063 49.3855C14.9772 48.2868 11.6621 46.5061 8.17649 47.2259C5.35392 47.8132 3.09966 49.8022 1.47052 53.1552C-1.14367 58.4783 0.277089 63.2521 1.52735 67.4386C2.83445 71.7955 3.95211 75.5653 1.30003 80.017C0.769618 80.9073 1.07271 82.0629 1.96305 82.6122C2.26615 82.7827 2.60713 82.8774 2.92917 82.8774C3.57324 82.8774 4.19838 82.5365 4.5583 81.9492C8.06283 76.0768 6.52842 70.9052 5.16449 66.3588C3.95211 62.3238 2.91022 58.8193 4.88034 54.8222C5.96011 52.5869 7.32404 51.2798 8.91529 50.9388C11.3969 50.4463 14.03 52.1891 14.9014 52.8142V108.167C14.9014 109.209 15.7539 110.061 16.7957 110.061H81.0897C82.1316 110.061 82.984 109.209 82.984 108.167V52.8142C83.8365 52.1891 86.4696 50.4274 88.9512 50.9388C90.5614 51.2798 91.9253 52.568 93.0051 54.8222C94.9752 58.8193 93.9333 62.3238 92.7228 66.3588C91.357 70.9052 89.8245 76.0768 93.3271 81.9492C93.6871 82.5365 94.3141 82.8774 94.9563 82.8774C95.2783 82.8774 95.6193 82.7827 95.9224 82.6122C96.8127 82.0629 97.1158 80.9073 96.5873 80.017C93.9333 75.5653 95.051 71.7955 96.3581 67.4386ZM59.4753 3.78868H61.1442V17.7879H59.4753V3.78868ZM36.7432 3.78868H38.4102V17.7879H36.7432V3.78868ZM79.1954 106.273H18.6901V52.5869C32.4619 42.528 35.1709 26.9375 35.7202 21.5765H62.1842C62.7127 26.9375 65.4235 42.528 79.1935 52.5869L79.1954 106.273Z" fill="#939597"/>
  <path d="M44.4911 79.5234H27.5936C26.5517 79.5234 25.6992 80.3569 25.6992 81.4178V91.6662C25.6992 97.3681 30.3404 102.009 36.0423 102.009C41.7443 102.009 46.3854 97.3681 46.3854 91.6662V81.4178C46.3854 80.3569 45.533 79.5234 44.4911 79.5234ZM42.5967 91.6662C42.5967 95.2844 39.6605 98.2206 36.0423 98.2206C32.4241 98.2206 29.4879 95.2844 29.4879 91.6662V88.5026H42.5967V91.6662ZM42.5967 84.7139H29.4879V83.3121H42.5967V84.7139Z" fill="#939597"/>
  <path d="M70.2921 79.5234H53.3946C52.3527 79.5234 51.5002 80.3569 51.5002 81.4178V91.6662C51.5002 97.3681 56.1414 102.009 61.8434 102.009C67.5472 102.009 72.1865 97.3681 72.1865 91.6662V81.4178C72.1865 80.3569 71.334 79.5234 70.2921 79.5234ZM68.3978 91.6662C68.3978 95.2844 65.4615 98.2206 61.8434 98.2206C58.2271 98.2206 55.2889 95.2844 55.2889 91.6662V88.5026H68.3978V91.6662ZM68.3978 84.7139H55.2889V83.3121H68.3978V84.7139Z" fill="#939597"/>
</svg>