<svg width="90" height="90" viewBox="0 0 90 90" fill="none" xmlns="http://www.w3.org/2000/svg">
  <path d="M23.2916 7.60112H22.7916V7.66043C21.8924 7.87679 21.247 8.66878 21.247 9.64649V12.7476C21.247 13.8935 22.1358 14.804 23.2916 14.804L66.6974 14.8034C67.8483 14.8034 68.7538 13.8978 68.7538 12.7469V9.6458C68.7538 8.49077 67.8434 7.60112 66.6974 7.60112H23.2916ZM19.1458 9.64583C19.1458 7.37233 21.0175 5.5 23.2916 5.5C23.2916 5.5 23.2916 5.5 23.2916 5.5L66.6974 5.50071C68.973 5.50071 70.8549 7.37402 70.8549 9.64654V12.747C70.8549 15.021 68.9715 16.9045 66.6974 16.9045H23.2916C21.0198 16.9045 19.1458 15.0227 19.1458 12.747V9.64583Z" fill="#939597" stroke="#939597"/>
  <path d="M14.5001 36.0006L14.5 35.996C14.4986 35.8433 14.53 35.693 14.5919 35.5557C14.5921 35.5552 14.5924 35.5547 14.5926 35.5542L23.6845 15.8595L25.5925 16.7436L16.6471 36.133L16.6011 36.2327L16.6011 36.3425L16.6004 79.4045C16.6004 81.4091 18.1811 83.0056 20.1904 83.0056H69.7969C71.8039 83.0056 73.398 81.4115 73.398 79.4045V36.3425V36.2327L73.3521 36.133L64.4066 16.7436L66.3148 15.8595L75.4067 35.5542C75.4069 35.5547 75.4072 35.5552 75.4074 35.5557C75.4697 35.694 75.5014 35.8444 75.4999 35.996V36.0006V79.4063C75.4999 82.5366 72.9279 85.1086 69.7977 85.1086H20.1911C17.0622 85.1086 14.5001 82.5377 14.5001 79.4063L14.5001 36.0006Z" fill="#939597" stroke="#939597"/>
  <path d="M54.8029 36.0006L54.8029 35.996C54.8015 35.8443 54.8331 35.694 54.8954 35.5557C54.8957 35.5552 54.8959 35.5547 54.8961 35.5542L63.988 15.8598L65.8956 16.7452L56.95 36.1348L56.904 36.2345V36.3443V83.564H54.8029L54.8029 36.0006Z" fill="#939597" stroke="#939597"/>
  <path d="M66.1977 71.1568L66.2144 71.1568L66.565 71.1569L66.6632 71.157L66.6891 71.157L66.6957 71.157H66.6974H66.6977L66.6971 45.3035C66.7005 44.4474 66.0093 43.7505 65.1525 43.7471M66.1977 71.1568L66.1971 45.3035V45.3015H66.1971C66.1994 44.7223 65.7322 44.2504 65.1523 44.2471M66.1977 71.1568L65.1508 71.1565L64.1078 71.1564M66.1977 71.1568L66.1978 71.6568C65.6224 71.6566 64.6832 71.6563 64.1078 71.6564V71.1564M65.1523 44.2471C65.1529 44.2471 65.1535 44.2471 65.1541 44.2471L65.1525 43.7471M65.1523 44.2471C65.1517 44.2471 65.1511 44.2471 65.1505 44.2471L65.1525 43.7471M65.1523 44.2471C64.5729 44.2499 64.1055 44.7214 64.1078 45.3015L64.1078 45.3035H64.1078V71.1564M65.1525 43.7471C64.2957 43.7498 63.6043 44.4467 63.6078 45.3035V71.1569L63.6128 71.1569L63.6401 71.1568L63.7384 71.1566L64.0882 71.1564L64.1078 71.1564M63.6078 71.657C63.6067 71.6567 63.7295 71.6565 63.9268 71.6565L63.6078 71.657Z" fill="#939597" stroke="#939597"/>
  <path d="M64.7184 73.9793L56.997 84.2895L55.3138 83.0253L65.178 69.8841L73.4724 81.4865L71.7573 82.713L65.5255 73.9884L65.1282 73.4322L64.7184 73.9793Z" fill="#939597" stroke="#939597"/>
</svg>