<svg width="226" height="126" viewBox="0 0 226 126" fill="none" xmlns="http://www.w3.org/2000/svg">
  <path fill-rule="evenodd" clip-rule="evenodd" d="M64.5687 109.972V102.83H105.114C105.544 102.83 105.575 103.383 105.723 103.722C106.706 105.966 109.677 108.06 112.724 108.06C115.093 108.06 116.98 107.645 118.522 106.326C119.505 105.483 120.086 104.98 120.642 103.794C120.813 103.429 120.848 102.829 121.285 102.829H161.83V109.971C161.83 110.279 161.721 110.574 161.355 110.574H65.0419C64.6767 110.574 64.5673 110.278 64.5673 109.971L64.5687 109.972ZM113.2 81.5029C119.933 81.5029 125.783 84.0499 129.163 86.9095C132.506 89.7393 134.012 91.6629 135.54 95.6998C135.901 96.6551 136.386 98.6062 136.386 99.8116H119.384C117.18 99.8116 117.884 101.886 117.076 103.091C114.975 106.226 109.774 105.361 108.889 102.151C108.79 101.792 109.009 99.8116 107.017 99.8116H90.0149C90.0149 96.4325 92.1666 92.1144 94.5332 89.4512C95.4029 88.4722 96.1542 87.8274 97.1785 86.96C98.9902 85.4281 101.315 84.0751 103.876 83.1696C106.492 82.2449 109.567 81.503 113.202 81.503L113.2 81.5029ZM86.3281 99.8116H75.7463L79.0514 90.5364C79.969 87.7173 81.4217 84.3038 82.4044 81.3018L84.085 76.6877C84.2351 76.3091 84.4023 75.2658 84.9013 75.2658H141.498C142.012 75.2658 142.552 77.3799 142.85 78.1478C143.248 79.1727 143.644 80.2411 143.971 81.2232C144.674 83.3501 145.475 85.2768 146.186 87.3953L148.445 93.5332C148.807 94.6085 149.162 95.5454 149.542 96.6291L150.653 99.8108H140.072C139.947 99.3581 139.998 99.15 139.92 98.6307C139.313 94.4356 137.67 91.2599 134.935 87.8587C134.068 86.7833 132.971 85.8112 131.897 84.8973L129.336 83.0387C128.976 82.8131 128.757 82.6639 128.372 82.4467C127.051 81.7056 125.733 81.0578 124.256 80.4972C118.973 78.4942 112.85 77.8921 107.015 79.0861C105.181 79.4624 103.807 79.9412 102.244 80.4819C96.521 82.4636 91.8506 86.5814 89.1024 91.1934C87.6939 93.5551 86.9291 95.9247 86.4934 98.5427C86.4075 99.0612 86.4518 99.3564 86.3271 99.81L86.3281 99.8116ZM149.109 67.1192H149.348C149.358 67.5368 155.191 83.4102 155.22 83.476C155.367 83.8477 155.429 84.11 155.573 84.4832C155.714 84.8496 155.83 85.0898 155.956 85.4676C157.06 88.7648 158.554 92.316 159.666 95.7072L161.116 99.8105H154.46C154.102 98.5164 151.995 93.0608 151.436 91.4028L145.3 74.5597C145.001 73.6893 145.013 74.0557 145.817 72.6836C146.205 72.0235 146.585 71.4874 146.967 70.8395C147.325 70.2369 147.681 69.6326 148.038 69.0292C148.303 68.5787 148.984 67.5706 149.108 67.1179L149.109 67.1192ZM71.9399 99.8116H65.2834C65.3196 99.433 65.5085 99.1003 65.6242 98.7928L68.1862 91.6057C68.8615 89.5903 69.7665 87.5521 70.4192 85.5489L71.1804 83.4761C72.2598 80.755 73.0689 78.0388 74.1249 75.3032C74.3753 74.653 77.0396 67.6786 77.053 67.1194H77.2917C77.4327 67.6296 80.3889 72.3999 81.0642 73.4897C81.387 74.0113 81.3119 73.9516 81.1266 74.4809L78.853 80.813C78.7029 81.1878 78.6089 81.5105 78.4651 81.8945L75.7694 89.1695C74.8844 91.8862 73.644 94.9103 72.7228 97.6562C72.4715 98.408 72.1487 99.0589 71.9399 99.8116ZM79.6693 64.5034H146.732L143.124 70.5057C142.89 70.9035 142.236 72.3498 141.737 72.3498H84.6654C84.1664 72.3498 83.5119 70.9035 83.2786 70.5057C82.8574 69.7952 82.5084 69.204 82.0889 68.4935C81.683 67.8082 81.3377 67.1275 80.8821 66.4966C80.4165 65.8488 80.0847 65.1642 79.6706 64.5034H79.6693ZM75.865 24.7682H105.114C105.83 24.7682 105.218 26.369 107.939 28.4141C110.166 30.0899 113.316 30.4945 116.156 29.5843C117.789 29.0612 119.133 28.0853 120.029 26.8256C121.034 25.4137 120.77 24.7689 121.285 24.7689H150.533L149.942 33.9263C149.946 34.4808 149.847 34.5719 149.82 35.0292L149.704 37.3459C149.701 37.8905 149.594 37.9379 149.578 38.4465L149.341 41.8653C149.324 43.5426 149.052 45.8531 148.992 47.7072L148.818 49.9749C148.74 50.4177 148.768 50.6609 148.753 51.1275C148.738 51.6353 148.631 51.682 148.628 52.2273L148.155 59.0703C148.164 59.9123 148.037 60.5441 148.037 61.4856H78.3598L75.8638 24.7677L75.865 24.7682ZM74.556 16.0162H151.843C152.576 16.0162 152.527 16.3948 152.838 17.1864L154.578 21.8511H131.034C127.238 21.8511 122.999 21.6997 119.258 21.8465C117.207 21.9276 117.9 23.6339 117.126 24.974C115.542 27.7128 110.825 27.6218 109.311 25.0405C109.117 24.7117 109.024 24.5419 108.911 24.1702C108.775 23.7197 109.041 21.9224 107.139 21.8466C103.399 21.6998 99.1596 21.8512 95.3634 21.8512H71.8197L73.8185 16.5005C73.9622 16.1548 74.0346 16.0171 74.5544 16.0171L74.556 16.0162ZM68.0161 22.1533C68.0161 23.39 69.3351 24.7682 70.7517 24.7682H72.1782C72.1782 25.5322 72.3392 26.6566 72.4088 27.3885L74.0975 51.411C74.3389 53.2359 74.2765 55.164 74.5224 56.6838L74.8804 62.0162C75.0685 63.1305 73.6708 66.3627 73.1727 67.6575L71.9839 70.8766C69.8169 76.4523 67.8859 82.5013 65.681 88.1786C64.5908 90.9832 63.6894 93.9623 62.5305 96.8801C62.2575 97.5684 62.0216 98.2836 61.7567 99.0423C61.5587 99.6113 61 100.751 61 101.321V110.273C61 111.982 62.978 113.593 64.6858 113.593H161.712C162.591 113.593 163.576 113.127 164.198 112.577C164.822 112.028 165.398 111.282 165.398 110.273V101.321C165.398 100.837 163.432 95.6739 163.094 94.8196L161.543 90.4976C161.29 89.7473 161.031 89.0352 160.775 88.3301L154.472 71.028C153.88 69.3898 151.373 63.3077 151.489 62.1958L152.269 51.5845C152.352 51.1058 152.279 50.6966 152.323 50.2239C152.369 49.7619 152.427 49.5111 152.432 48.9084C152.438 48.3347 152.561 48.2147 152.558 47.6066C152.556 46.9619 152.644 46.698 152.675 46.1948C152.728 45.3098 152.695 44.3691 152.81 43.4941C152.899 42.8157 153.038 41.5996 153.03 40.8638C153.024 40.128 153.161 38.9135 153.251 38.2334L153.627 32.8192C153.624 32.0926 153.728 30.8039 153.83 30.1736L154.219 24.7692H155.646C157.062 24.7692 158.381 23.391 158.381 22.1543C158.381 21.6228 156.719 17.4812 156.405 16.6841C155.831 15.2271 155.109 13 152.199 13H74.1986C71.3798 13 70.6096 15.1148 70.0229 16.6086C69.7028 17.4177 68.015 21.6251 68.015 22.1543L68.0161 22.1533Z" fill="#939597"/>
  <path fill-rule="evenodd" clip-rule="evenodd" d="M125.565 95.0833C125.565 93.1384 128.895 92.9877 128.895 95.1828C128.895 96.8256 125.565 96.9319 125.565 95.0833ZM121.999 94.6795C121.999 95.7893 121.95 96.0065 122.554 97.0283C123.115 97.9836 123.926 98.6666 125.091 99.1063C127.094 99.8627 129.387 99.4734 130.891 98.2795C133.928 95.8665 132.503 90.5547 127.112 90.5547C125.073 90.5547 123.459 91.5842 122.523 93.0106C122.279 93.3823 122 94.1433 122 94.6794L121.999 94.6795Z" fill="#939597"/>
  <path fill-rule="evenodd" clip-rule="evenodd" d="M99.4086 93.5742C99.4086 92.3772 101.166 91.5773 102.3 92.5371C103.884 93.8771 101.501 95.8848 99.9175 94.5524C99.6997 94.3681 99.4086 93.8855 99.4086 93.5742ZM95.8404 93.4748C95.8404 97.3142 101.28 99.6684 104.909 96.6197C108.411 93.6743 105.282 89.1504 101.666 89.1504C99.7504 89.1504 98.7849 89.2016 97.294 90.4804C96.531 91.1352 95.8404 92.2051 95.8404 93.4748Z" fill="#939597"/>
  <path fill-rule="evenodd" clip-rule="evenodd" d="M113.079 88.4443C113.079 86.5636 116.415 86.5269 116.489 88.3556C116.571 90.3481 113.079 90.166 113.079 88.4443ZM109.513 88.3434C109.513 89.74 110.18 90.7703 111.026 91.4891C114.457 94.4039 120.095 92.3059 120.095 88.3434C120.095 85.8646 117.461 83.918 114.863 83.918C112.008 83.918 109.513 85.918 109.513 88.3434H109.513Z" fill="#939597"/>
  <path fill-rule="evenodd" clip-rule="evenodd" d="M122.473 87.5403C122.473 89.7399 126.278 89.5022 126.278 87.8432V87.3399C126.278 86.1231 124.122 85.4187 123.046 86.4145C122.825 86.6187 122.474 87.1977 122.474 87.5403H122.473Z" fill="#939597"/>
  <path fill-rule="evenodd" clip-rule="evenodd" d="M111.297 97.7995C111.297 100.226 115.102 100.201 115.102 97.7995C115.102 97.0706 114.278 96.3906 112.962 96.3906C112.22 96.3906 111.297 97.1723 111.297 97.7995Z" fill="#939597"/>
  <path fill-rule="evenodd" clip-rule="evenodd" d="M107.016 86.2322C107.016 85.0865 106.664 84.4219 104.876 84.4219C104.162 84.4219 103.584 84.971 103.376 85.4712C103.099 86.1343 103.346 86.7103 103.827 87.1202C104.341 87.557 104.921 87.7252 105.771 87.4996C106.367 87.342 107.015 86.8227 107.015 86.2322H107.016Z" fill="#939597"/>
</svg>