<svg width="98" height="111" viewBox="0 0 98 111" fill="none" xmlns="http://www.w3.org/2000/svg">
  <path d="M92.5556 24.4768L83.4281 43.3402H74.3007L84.0366 19.6088M92.5556 24.4768V12.9153L84.0366 19.6088M92.5556 24.4768L84.0366 19.6088M69.4327 19.6088H74.3007V11.0898H64.5647V19.6088H69.4327ZM69.4327 19.6088C69.4327 25.0853 70.6497 33.6042 63.3477 33.6042H49.9608C47.7296 33.8071 43.2673 35.308 43.2673 39.6892V43.3402" stroke="#939597" stroke-width="3" stroke-linecap="round" stroke-linejoin="round"/>
  <path d="M54.2202 43.9481H64.5646L53.0032 22.6507L57.8712 20.2167L45.0927 14.7402L40.8333 28.7357L46.3097 26.3017L54.2202 43.9481Z" stroke="#939597" stroke-width="3" stroke-linecap="round" stroke-linejoin="round"/>
  <path d="M31.6413 90.7157L33.4959 90.6047V92.4626V106.856C33.4966 107.807 34.222 108.602 35.421 108.602H75.8357C76.9576 108.602 77.6447 107.772 77.6447 107.071V82.3026V81.3363L78.4625 80.8216C89.9182 73.6111 96.4634 61.8889 96.2447 49.0969H96.2447L96.2445 49.0863C96.1882 43.9801 95.0217 39.0068 92.847 34.4142L16.8868 34.0379C15.2489 37.7972 14.1603 41.6571 13.7366 45.243C13.4668 47.7092 12.4051 50.1499 10.6907 52.1057L3.13071 61.2923L3.12385 61.3006L3.11689 61.3089C1.86887 62.7878 1.45158 64.7234 1.9647 66.458L1.97576 66.4954L1.98515 66.5333C2.67899 69.3316 5.64871 71.5334 9.07195 71.45L11.8163 71.3448L13.5773 71.2774L13.6324 73.0388L13.9764 84.034C14.0713 86.0688 14.9837 87.9314 16.666 89.3097L16.6662 89.31C18.3911 90.7238 20.587 91.4223 22.765 91.2476L22.7826 91.2462L22.8003 91.2451L31.6413 90.7157Z" stroke="#939597" stroke-width="3.5"/>
  <path d="M30.8615 33.3451V28.9416C30.8615 28.365 31.192 27.8395 31.7116 27.5897C35.1772 25.9238 37.2016 22.9379 37.2913 19.8284C37.2618 17.5159 36.1219 15.2429 34.0099 13.5555C31.9808 11.9477 29.2423 11.0414 26.3729 11.0834L30.8615 33.3451ZM30.8615 33.3451H22.2668V28.8969C22.2668 28.318 21.9337 27.7908 21.4108 27.5422C17.9326 25.8888 15.9081 22.8978 15.8371 19.7887C15.8658 17.5907 16.9076 15.4259 18.8503 13.7748L18.8504 13.7747C20.8065 12.1118 23.5027 11.1255 26.3729 11.0834L30.8615 33.3451Z" stroke="#939597" stroke-width="3" stroke-linejoin="round"/>
  <path d="M27.6763 6.70574C27.9551 6.70574 28.2224 6.61003 28.4196 6.4403C28.6165 6.27027 28.7275 6.03984 28.7275 5.7995V0.906259C28.7275 0.405755 28.2569 0 27.6763 0C27.0956 0 26.625 0.405731 26.625 0.906259V5.7995C26.625 6.03984 26.736 6.27027 26.9329 6.4403C27.1301 6.61003 27.3975 6.70574 27.6763 6.70574Z" fill="#939597"/>
  <path d="M6.4956 19.8906H12.1718C12.7523 19.8906 13.2226 19.4849 13.2226 18.9844C13.2226 18.4839 12.7524 18.0781 12.1718 18.0781H6.4956C5.91501 18.0781 5.44434 18.4839 5.44434 18.9844C5.44434 19.4849 5.91498 19.8906 6.4956 19.8906Z" fill="#939597"/>
  <path d="M16.0086 10.3304C16.1976 10.5079 16.4645 10.6092 16.7444 10.6092C17.0239 10.6092 17.2908 10.5079 17.4802 10.3304C17.686 10.1672 17.8035 9.93707 17.8035 9.69611C17.8035 9.45483 17.686 9.22472 17.4802 9.0618L13.4333 5.61834C13.2504 5.40804 12.9706 5.27672 12.6666 5.25813C12.3627 5.23955 12.0645 5.33556 11.8489 5.52108C11.6334 5.70692 11.5223 5.96429 11.5439 6.22631C11.5655 6.48833 11.7178 6.72929 11.9617 6.88693L16.0086 10.3304Z" fill="#939597"/>
  <path d="M38.6082 10.602C38.8855 10.5986 39.15 10.5011 39.344 10.3304L43.3908 6.88693C43.6348 6.72929 43.7871 6.48833 43.8087 6.22631C43.8302 5.96429 43.7192 5.70691 43.5036 5.52108C43.2881 5.33557 42.9899 5.23955 42.6859 5.25813C42.382 5.27672 42.1021 5.40803 41.9193 5.61834L37.8724 9.0618C37.6665 9.22472 37.5491 9.45483 37.5491 9.69611C37.5491 9.93707 37.6665 10.1672 37.8724 10.3304C38.0668 10.5011 38.3312 10.5986 38.6082 10.602Z" fill="#939597"/>
</svg>
