<svg width="226" height="126" viewBox="0 0 226 126" fill="none" xmlns="http://www.w3.org/2000/svg">
  <path d="M72.0012 46.7167V105.723C72.0036 106.987 72.5866 108.199 73.623 109.092C74.6602 109.986 76.0658 110.49 77.5322 110.491H102.85H102.849C104.316 110.49 105.722 109.987 106.758 109.093C107.796 108.199 108.38 106.987 108.381 105.723V46.7167C108.384 44.7075 107.495 42.773 105.896 41.3112L104.477 40.0111V40.0104C105.179 39.9648 105.721 39.4615 105.723 38.8553V36.6396C105.721 35.5812 105.233 34.5668 104.365 33.8184C103.497 33.07 102.32 32.6488 101.093 32.6481H86.9221L88.8612 18.3502C88.9396 17.7682 89.5107 17.3298 90.1907 17.3298C90.8699 17.3298 91.4417 17.7682 91.5202 18.3502L92.9827 29.1344V29.1337C93.0187 29.4444 93.199 29.7289 93.4809 29.9243C93.7628 30.119 94.124 30.2088 94.4828 30.1728C94.8424 30.1363 95.17 29.9774 95.3919 29.7316C95.6145 29.4852 95.713 29.1731 95.6658 28.8637L94.2033 18.0803C94.0479 16.9397 93.251 15.9385 92.0728 15.4033C90.8945 14.8681 89.4858 14.8682 88.3077 15.4033C87.1287 15.9384 86.3326 16.9396 86.1772 18.0803L84.2021 32.6481H79.2884C78.0614 32.6488 76.884 33.0699 76.0158 33.8184C75.1476 34.5668 74.6599 35.5811 74.6583 36.6396V38.8552C74.6599 39.4614 75.2029 39.9647 75.9045 40.0096L74.4861 41.3097V41.3104C72.8858 42.7721 71.9967 44.7068 72 46.7167L72.0012 46.7167ZM105.68 105.723H105.681C105.68 107.069 104.413 108.161 102.851 108.162H77.5328C75.9702 108.161 74.7047 107.069 74.7031 105.723V46.7167C74.7031 46.203 74.7856 45.6914 74.949 45.197H86.8419C87.5875 45.197 88.1922 44.6758 88.1922 44.0323C88.1922 43.3895 87.5875 42.8682 86.8419 42.8682H76.4972L79.6039 40.0201H100.778L103.885 42.8682H100.514H100.514C99.768 42.8682 99.1633 43.3895 99.1633 44.0323C99.1633 44.6758 99.768 45.197 100.514 45.197H105.435C105.598 45.6914 105.68 46.203 105.68 46.7167L105.68 105.723ZM77.3608 36.6399C77.3624 35.7223 78.225 34.978 79.2894 34.9773H101.093C102.157 34.978 103.02 35.7223 103.022 36.6399V37.6915H77.3613L77.3608 36.6399Z" fill="#939597"/>
  <path d="M117.808 46.716V105.722C117.81 106.986 118.394 108.198 119.43 109.092C120.467 109.986 121.873 110.489 123.339 110.49H148.657C150.124 110.489 151.529 109.986 152.566 109.092C153.604 108.198 154.187 106.986 154.188 105.722V46.716C154.192 44.7068 153.302 42.7722 151.703 41.3104L150.285 40.0103V40.0096C150.986 39.9647 151.529 39.4614 151.531 38.8545V36.6389C151.529 35.5804 151.041 34.5661 150.172 33.8177C149.305 33.0692 148.128 32.6487 146.9 32.6474H132.73L134.668 18.3495C134.747 17.7674 135.319 17.329 135.998 17.329C136.677 17.329 137.249 17.7674 137.327 18.3495L138.841 29.5107C138.878 29.8207 139.057 30.1051 139.339 30.3006C139.621 30.496 139.982 30.585 140.342 30.5491C140.701 30.5132 141.028 30.3537 141.25 30.1079C141.473 29.8621 141.571 29.5493 141.524 29.24L140.01 18.0788C139.856 16.9382 139.06 15.9364 137.881 15.4013C136.703 14.8662 135.294 14.8662 134.115 15.4013C132.937 15.9364 132.14 16.9383 131.985 18.0788L130.009 32.6459H125.096H125.096C123.869 32.6473 122.692 33.0684 121.824 33.8169C120.956 34.5654 120.467 35.5796 120.466 36.6381V38.8537C120.467 39.4599 121.009 39.9633 121.711 40.0088L120.292 41.309V41.3097C118.693 42.772 117.804 44.7067 117.807 46.7159L117.808 46.716ZM151.487 105.722C151.486 107.068 150.22 108.16 148.658 108.161H123.34C121.778 108.16 120.512 107.069 120.51 105.722V46.716C120.511 46.2023 120.593 45.6906 120.757 45.1963H132.65H132.649C133.395 45.1963 134 44.675 134 44.0315C134 43.3887 133.395 42.8674 132.649 42.8674H122.305L125.412 40.0193H146.586L149.693 42.8674H146.322C145.576 42.8674 144.971 43.3887 144.971 44.0315C144.971 44.675 145.576 45.1963 146.322 45.1963H151.241C151.404 45.6906 151.487 46.2023 151.487 46.716L151.487 105.722ZM123.168 36.6374C123.169 35.7198 124.032 34.9762 125.096 34.9748H146.9C147.964 34.9762 148.827 35.7198 148.829 36.6374V37.6889H123.168L123.168 36.6374Z" fill="#939597"/>
  <path d="M147.674 74.7824C147.353 71.1561 145.346 69.2111 143.115 68.174V68.1734C143.662 67.9303 144.186 67.65 144.681 67.3338C144.971 67.1501 145.164 66.8746 145.217 66.5681C145.27 66.2615 145.18 65.9494 144.965 65.7009C144.75 65.4516 144.429 65.2873 144.074 65.2431C143.718 65.1989 143.356 65.2783 143.068 65.4647C141.7 66.3091 140.107 66.8415 138.436 67.012C138.794 66.1062 139.378 65.0794 140.219 64.641C140.854 64.3076 141.056 63.5936 140.671 63.0447C140.286 62.4958 139.459 62.3184 138.821 62.6484C136.177 64.0266 135.446 67.5215 135.352 68.043C135.29 68.3122 134.99 69.7518 135.385 70.9193C135.6 71.529 136.345 71.8763 137.055 71.6981C137.765 71.52 138.177 70.882 137.979 70.2675C137.899 69.983 137.87 69.6903 137.89 69.3982C138.023 69.3906 138.163 69.3817 138.311 69.3692C141.009 69.5418 144.571 70.6086 144.975 74.9149C144.864 77.2645 143.432 79.4201 141.137 80.692C140.396 81.0952 139.467 81.1422 138.675 80.8163L138.242 80.6416C136.82 80.0637 135.173 80.0637 133.75 80.6416L133.318 80.8163C132.527 81.1422 131.598 81.0952 130.856 80.692C128.56 79.4202 127.128 77.2645 127.019 74.9149C127.299 71.9163 129.107 70.1019 132.394 69.5253C132.401 69.5253 132.407 69.5212 132.414 69.5198V69.5191C132.493 69.5046 132.571 69.4839 132.645 69.4576C132.658 69.4528 132.67 69.4466 132.683 69.4418C132.72 69.4266 132.758 69.4128 132.795 69.3941C132.81 69.3865 132.821 69.3769 132.836 69.3693C132.877 69.3465 132.918 69.3216 132.957 69.2954C132.99 69.2733 133.021 69.2519 133.05 69.2277C133.082 69.2008 133.113 69.1725 133.142 69.1428C133.17 69.1138 133.198 69.0869 133.223 69.0558C133.247 69.0247 133.269 68.993 133.29 68.9612L133.291 68.9605C133.312 68.9288 133.333 68.8963 133.351 68.8625C133.369 68.8279 133.384 68.792 133.398 68.7554C133.411 68.7189 133.424 68.6878 133.435 68.6526C133.444 68.6153 133.452 68.5773 133.457 68.54C133.463 68.5027 133.468 68.4655 133.47 68.4275C133.472 68.3895 133.47 68.3564 133.467 68.3205V68.3198C133.465 68.2777 133.46 68.2362 133.452 68.1948C133.45 68.1803 133.452 68.1658 133.448 68.1513C133.443 68.1306 133.432 68.1119 133.426 68.0912V68.0905C133.414 68.0512 133.4 68.0125 133.384 67.9746C133.367 67.9359 133.348 67.8986 133.325 67.862C133.315 67.8434 133.308 67.824 133.296 67.8054C133.279 67.7805 133.26 67.7577 133.244 67.7336C133.242 67.7301 133.239 67.726 133.236 67.7225C132.321 66.3983 130.952 65.3523 129.318 64.7281C128.639 64.463 127.839 64.7233 127.531 65.3095C127.224 65.8957 127.526 66.5855 128.206 66.8499C128.805 67.0805 129.357 67.3905 129.843 67.7696C126.565 68.9295 124.623 71.3605 124.321 74.7804C124.321 74.8038 124.318 74.8273 124.317 74.8508C124.313 75.0545 124.288 79.8579 129.41 82.6563V82.657C130.931 83.489 132.841 83.5891 134.468 82.9214L134.901 82.7467C135.596 82.4643 136.402 82.4643 137.096 82.7467L137.529 82.9214H137.53C138.236 83.2087 139.006 83.3578 139.787 83.3585C140.779 83.3585 141.75 83.1148 142.587 82.6556C147.71 79.8558 147.683 75.053 147.68 74.8501C147.677 74.8287 147.676 74.8052 147.674 74.7824Z" fill="#939597"/>
  <path d="M98.986 64.2417C98.958 63.6161 98.3629 63.1218 97.6372 63.1211H97.5852C97.2272 63.1328 96.8892 63.2668 96.6457 63.4933C96.4014 63.7197 96.2725 64.0208 96.2861 64.3294C96.3293 65.3195 96.1251 68.1745 94.677 69.4802C94.6602 69.4954 94.649 69.5134 94.633 69.5285C94.6178 69.5444 94.5993 69.5575 94.5833 69.5748C94.5673 69.5914 94.5625 69.6038 94.5497 69.6204V69.6197C94.5217 69.6542 94.4952 69.6901 94.472 69.7274C94.4528 69.7578 94.4352 69.7881 94.4191 69.8199V69.8192C94.3991 69.8586 94.3823 69.8986 94.3679 69.9387C94.3567 69.9697 94.3463 70.0008 94.3382 70.0326C94.327 70.0754 94.3198 70.1182 94.3142 70.1617C94.311 70.1907 94.3078 70.2197 94.307 70.2514C94.3054 70.297 94.307 70.3426 94.3126 70.3882C94.3158 70.4158 94.319 70.4427 94.3238 70.4696L94.323 70.4703C94.3326 70.5173 94.3455 70.5642 94.3607 70.6098C94.3695 70.6346 94.3783 70.6595 94.3887 70.6844C94.4079 70.7299 94.4304 70.7748 94.456 70.8183C94.4704 70.8418 94.4848 70.8653 94.5008 70.888C94.5305 70.9295 94.5633 70.9695 94.5993 71.0075C94.6202 71.0296 94.641 71.0517 94.6642 71.0724C94.6866 71.0938 94.6979 71.1097 94.7179 71.1262C94.7371 71.1428 94.7699 71.1608 94.7956 71.1787C94.8084 71.1877 94.8172 71.1981 94.8292 71.2077L94.8284 71.2084C95.1528 71.4197 95.3995 71.7076 95.538 72.0376C95.7511 72.6501 95.6886 73.3101 95.3626 73.8853C92.0972 78.699 87.9541 80.711 83.0453 79.8605C82.7441 79.8135 82.5079 79.6112 82.451 79.3516C82.3805 79.1093 82.4943 78.8545 82.7345 78.715C84.8593 77.3451 86.736 75.7109 88.3025 73.8647C88.3409 73.8191 88.3746 73.7715 88.4042 73.7217C89.3052 72.2021 90.4697 71.2548 91.8675 70.906H91.8667C92.5835 70.7272 92.996 70.0809 92.7885 69.4637C92.5811 68.8457 91.8314 68.4901 91.1146 68.669C89.0003 69.1972 87.2958 70.5125 86.0488 72.5797C85.7076 72.9808 83.711 75.2614 81.172 76.8163H81.1728C80.6242 77.147 80.2021 77.6103 79.9602 78.1482C79.7183 78.6861 79.6671 79.2736 79.8136 79.8364C79.9482 80.4087 80.2774 80.9335 80.7587 81.3443C81.2401 81.7551 81.8528 82.0333 82.5183 82.1438C83.3978 82.2978 84.2932 82.3765 85.191 82.3786C89.0891 82.3786 93.7937 80.832 97.7246 75.024V75.0233C98.4358 73.8633 98.5672 72.5038 98.0882 71.2582C97.9312 70.8771 97.7086 70.5181 97.4283 70.1936C99.0886 67.8922 99.0037 64.65 98.9861 64.2419L98.986 64.2417Z" fill="#939597"/>
  <path d="M93.0296 45.1961H94.6403C95.3859 45.1961 95.9906 44.6748 95.9906 44.0313C95.9906 43.3885 95.3859 42.8672 94.6403 42.8672H93.0296C92.284 42.8672 91.6785 43.3885 91.6785 44.0313C91.6785 44.6748 92.284 45.1961 93.0296 45.1961Z" fill="#939597"/>
  <path d="M138.837 45.1961H140.447C141.193 45.1961 141.798 44.6748 141.798 44.0313C141.798 43.3885 141.193 42.8672 140.447 42.8672H138.837C138.09 42.8672 137.486 43.3885 137.486 44.0313C137.486 44.6748 138.09 45.1961 138.837 45.1961Z" fill="#939597"/>
</svg>