<svg width="226" height="126" viewBox="0 0 226 126" fill="none" xmlns="http://www.w3.org/2000/svg">
  <path d="M106.313 41.7461C105.324 41.7461 104.516 42.4432 104.516 43.2951V49.4913C104.516 50.3432 105.324 51.0403 106.313 51.0403C107.301 51.0403 108.109 50.3432 108.109 49.4913V43.2951C108.109 42.4432 107.301 41.7461 106.313 41.7461Z" fill="#939597"/>
  <path d="M91.9375 41.7461C90.9492 41.7461 90.1406 42.4432 90.1406 43.2951V49.4913C90.1406 50.3432 90.9492 51.0403 91.9375 51.0403C92.9258 51.0403 93.7344 50.3432 93.7344 49.4913V43.2951C93.7344 42.4432 92.9258 41.7461 91.9375 41.7461Z" fill="#939597"/>
  <path d="M120.688 41.7461C119.699 41.7461 118.891 42.4432 118.891 43.2951V49.4913C118.891 50.3432 119.699 51.0403 120.688 51.0403C121.676 51.0403 122.484 50.3432 122.484 49.4913V43.2951C122.484 42.4432 121.676 41.7461 120.688 41.7461Z" fill="#939597"/>
  <path d="M135.063 41.7461C134.074 41.7461 133.266 42.4432 133.266 43.2951V49.4913C133.266 50.3432 134.074 51.0403 135.063 51.0403C136.051 51.0403 136.859 50.3432 136.859 49.4913V43.2951C136.859 42.4432 136.051 41.7461 135.063 41.7461Z" fill="#939597"/>
  <path d="M106.313 85.1165C107.301 85.1165 108.109 84.4194 108.109 83.5674V77.3713C108.109 76.5193 107.301 75.8223 106.313 75.8223C105.324 75.8223 104.516 76.5193 104.516 77.3713V83.5674C104.516 84.4194 105.324 85.1165 106.313 85.1165Z" fill="#939597"/>
  <path d="M91.9375 85.1165C92.9258 85.1165 93.7344 84.4194 93.7344 83.5674V77.3713C93.7344 76.5193 92.9258 75.8223 91.9375 75.8223C90.9492 75.8223 90.1406 76.5193 90.1406 77.3713V83.5674C90.1406 84.4194 90.9492 85.1165 91.9375 85.1165Z" fill="#939597"/>
  <path d="M120.688 85.1165C121.676 85.1165 122.484 84.4194 122.484 83.5674V77.3713C122.484 76.5193 121.676 75.8223 120.688 75.8223C119.699 75.8223 118.891 76.5193 118.891 77.3713V83.5674C118.891 84.4194 119.699 85.1165 120.688 85.1165Z" fill="#939597"/>
  <path d="M135.063 85.1165C136.051 85.1165 136.859 84.4194 136.859 83.5674V77.3713C136.859 76.5193 136.051 75.8223 135.063 75.8223C134.074 75.8223 133.266 76.5193 133.266 77.3713V83.5674C133.266 84.4194 134.074 85.1165 135.063 85.1165Z" fill="#939597"/>
  <path d="M165.609 55.6864H163.579L154.774 38.6007C153.337 35.8125 150.12 34 146.563 34H80.4375C76.8975 34 73.6631 35.8125 72.2256 38.6007L63.4209 55.6864H61.3906C58.4257 55.6864 56 57.7775 56 60.3335V66.5297C56 69.0857 58.4257 71.1768 61.3906 71.1768H63.4209L72.2256 88.2625C73.6631 91.0508 76.8799 92.8632 80.4375 92.8632H146.563C150.102 92.8632 153.337 91.0508 154.774 88.2625L163.579 71.1768H165.609C168.574 71.1768 171 69.0857 171 66.5297V60.3335C171 57.7775 168.574 55.6864 165.609 55.6864ZM75.5129 39.8552C76.3753 38.1824 78.3156 37.0981 80.4368 37.0981H146.562C148.682 37.0981 150.622 38.1824 151.486 39.8552L159.644 55.6864H67.3563L75.5146 39.8552H75.5129ZM151.485 87.0077C150.623 88.6805 148.682 89.7648 146.561 89.7648H80.436C78.3159 89.7648 76.3754 88.6805 75.5121 87.0077L67.3539 71.1764H159.66L151.502 87.0077H151.485ZM167.405 66.5286C167.405 67.3806 166.596 68.0776 165.608 68.0776H61.3891C60.4008 68.0776 59.5922 67.3806 59.5922 66.5286V64.9796H167.405V66.5286ZM167.405 61.8815H59.5922V60.3325C59.5922 59.4805 60.4008 58.7834 61.3891 58.7834H165.608C166.596 58.7834 167.405 59.4805 167.405 60.3325V61.8815Z" fill="#939597"/>
</svg>