<svg width="90" height="90" viewBox="0 0 90 90" fill="none" xmlns="http://www.w3.org/2000/svg">
  <path d="M45.0833 18C30.1252 18 18 30.1252 18 45.0833C18 60.0415 30.1252 72.1667 45.0833 72.1667C60.0415 72.1667 72.1667 60.0415 72.1667 45.0833C72.1667 30.1252 60.0415 18 45.0833 18Z" stroke="#939597" stroke-width="2.5" stroke-linecap="round" stroke-linejoin="round"/>
  <path d="M34.25 69.9137V50.5003L45.0833 31.542L55.9167 50.5003V69.9137" stroke="#939597" stroke-width="2.5" stroke-linecap="round" stroke-linejoin="round"/>
  <path d="M34.25 50.5C34.25 50.5 37.3023 53.2083 39.6667 53.2083C42.031 53.2083 45.0833 50.5 45.0833 50.5C45.0833 50.5 48.1356 53.2083 50.5 53.2083C52.8644 53.2083 55.9167 50.5 55.9167 50.5" stroke="#939597" stroke-width="2.5" stroke-linecap="round" stroke-linejoin="round"/>
</svg>