<svg width="95" height="100" viewBox="0 0 95 100" fill="none" xmlns="http://www.w3.org/2000/svg">
  <path d="M93.8401 48.3507H69.1796V43.1291C69.4269 43.0861 69.6523 42.9529 69.8163 42.7547L77.2532 33.4598V33.4589C77.5408 33.0955 77.5998 32.5905 77.4034 32.1655C77.2119 31.7465 76.8063 31.4783 76.3611 31.4767H59.6807C59.2314 31.4758 58.8218 31.7473 58.6303 32.1723C58.4396 32.5972 58.501 33.0989 58.7886 33.4589L66.2135 42.7539L66.2143 42.7547C66.3799 42.9562 66.6102 43.0895 66.8623 43.1291V48.3507H29.2055V43.1291C29.4576 43.0895 29.6879 42.9563 29.8543 42.7547L37.2792 33.4598V33.4589C37.5983 33.1015 37.6791 32.5778 37.4836 32.1326C37.2889 31.6883 36.8558 31.41 36.3871 31.4286H19.7075C19.2615 31.4303 18.8559 31.6976 18.6644 32.1175C18.4688 32.5424 18.5278 33.0475 18.8154 33.4109L26.2523 42.7058H26.2515C26.4155 42.9048 26.6409 43.0372 26.889 43.0811V48.3508H1.17357C0.533627 48.3508 0.0148926 48.8921 0.0148926 49.5599V55.6037C0.0148926 55.9242 0.1369 56.2319 0.354249 56.4587C0.571605 56.6855 0.866529 56.8128 1.17355 56.8128H5.72587V97.9107C5.72587 98.2311 5.84788 98.5389 6.06523 98.7657C6.28259 98.9925 6.5767 99.1198 6.88453 99.1198H88.1304C88.4383 99.1198 88.7324 98.9925 88.9498 98.7657C89.1671 98.5389 89.2891 98.2311 89.2891 97.9107V56.8128H93.8414C94.1485 56.8128 94.4434 56.6855 94.6607 56.4587C94.8781 56.2319 95.0001 55.9241 95.0001 55.6037V49.5599C95.0001 49.2395 94.8781 48.9318 94.6607 48.705C94.4434 48.4782 94.1485 48.3508 93.8414 48.3508L93.8401 48.3507ZM62.1489 33.8458H73.8828L68.3576 40.7725H67.6159L62.1489 33.8458ZM22.1857 33.8458H33.9196L28.4171 40.7235H27.6753L22.1857 33.8458ZM17.3893 96.7014H15.1771L19.2082 74.702H25.3238L17.3893 96.7014ZM16.8569 72.2607V65.1655H40.5555V72.2734L16.8569 72.2607ZM19.9265 96.7014L27.8151 74.6912H29.6105L37.4868 96.7014H19.9265ZM39.9658 96.7014L32.0772 74.702H38.2398L42.225 96.7014H39.9658ZM55.0246 96.7014H52.7887L56.7739 74.702H62.9017L55.0246 96.7014ZM54.4573 72.2715V65.1644H78.1104V72.2724L54.4573 72.2715ZM57.527 96.7014L65.4155 74.689L67.1988 74.6899L75.0874 96.7001L57.527 96.7014ZM77.6243 96.7014L69.689 74.702H75.8047L79.8366 96.7014H77.6243ZM87.0182 96.7014H82.1878L78.168 74.6912H79.3266C79.6337 74.6912 79.9286 74.5639 80.1459 74.3371C80.3633 74.1102 80.4853 73.8025 80.4853 73.4821V63.9568C80.4853 63.6364 80.3633 63.3287 80.1459 63.1019C79.9286 62.8759 79.6337 62.7486 79.3266 62.7486H53.2989C52.6589 62.7486 52.1402 63.2891 52.1402 63.9569V73.4821C52.1402 73.8025 52.2622 74.1103 52.4796 74.3371C52.6969 74.5639 52.9918 74.6912 53.2989 74.6912H54.4576L50.4265 96.7015H44.6347L40.5567 74.6912H41.7154C42.0224 74.6912 42.3174 74.5639 42.5347 74.3371C42.7521 74.1103 42.8741 73.8025 42.8741 73.4821V63.9569C42.8741 63.6364 42.7521 63.3287 42.5347 63.1019C42.3173 62.8759 42.0224 62.7486 41.7154 62.7486H15.7456C15.1056 62.7486 14.5869 63.2891 14.5869 63.9569V73.4821C14.5869 73.8025 14.7089 74.1103 14.9263 74.3371C15.1436 74.5639 15.4377 74.6912 15.7456 74.6912H16.9042L12.8262 96.7015H8.04203V56.8123H86.9733L87.0182 96.7014ZM92.6823 54.3948H2.33091V50.7691H92.6823V54.3948Z" fill="#939597"/>
  <path d="M93.8401 0H1.17199C0.53204 0 0.0133049 0.54131 0.0133049 1.20911C0.0133049 1.87691 0.53204 2.41821 1.17199 2.41821H7.80975V7.15678V7.15593C7.58189 7.21243 7.37585 7.3389 7.21829 7.5185L0.26777 16.2099H0.268578C-0.0206787 16.5725 -0.0820928 17.0767 0.112632 17.5025C0.306553 17.9283 0.72025 18.1981 1.17192 18.1922H16.7631C17.2116 18.1888 17.618 17.9157 17.8055 17.4915C17.997 17.07 17.938 16.5708 17.6552 16.2099L10.7046 7.5185H10.7055C10.5544 7.33637 10.3516 7.20905 10.1261 7.15593V2.41823H27.0724V7.1568V7.15595C26.847 7.20907 26.6441 7.33639 26.493 7.51852L19.5425 16.2099H19.5433C19.2565 16.5683 19.1935 17.0675 19.3809 17.4916C19.5708 17.9199 19.9829 18.1931 20.4354 18.1922H36.0266C36.4766 18.1931 36.8855 17.9224 37.077 17.4975C37.2685 17.0725 37.2062 16.5708 36.9186 16.2099L29.9681 7.51852C29.8154 7.33302 29.6077 7.20571 29.3774 7.15595V2.41825H46.3471V7.15682V7.15597C46.1224 7.20909 45.9188 7.33641 45.7685 7.51854L38.818 16.21C38.5304 16.5708 38.4681 17.0725 38.6596 17.4975C38.8503 17.9224 39.26 18.1931 39.71 18.1923H55.3012C55.7513 18.1931 56.1609 17.9224 56.3516 17.4975C56.5431 17.0725 56.4809 16.5708 56.1933 16.21L49.2427 7.51854C49.0925 7.33641 48.8888 7.20909 48.6642 7.15597V2.41827H65.6225V7.15684V7.15599C65.3922 7.20574 65.1845 7.33306 65.031 7.51856L58.0805 16.21H58.0813C57.7937 16.5709 57.7314 17.0725 57.9229 17.4975C58.1136 17.9225 58.5233 18.1931 58.9733 18.1923H74.5645C75.017 18.1931 75.4283 17.9199 75.6182 17.4916C75.8064 17.0675 75.7434 16.5683 75.4566 16.21L68.506 7.51856C68.3558 7.33643 68.1522 7.20912 67.9267 7.15599V2.41829H84.885V7.15686V7.15601C84.6595 7.20913 84.4567 7.33645 84.3056 7.51858L77.3551 16.21H77.3559C77.0731 16.5709 77.0141 17.07 77.2056 17.4916C77.3931 17.9157 77.7995 18.1889 78.248 18.1923H93.8391C94.2892 18.1931 94.6981 17.9225 94.8895 17.4975C95.0811 17.0725 95.0188 16.5709 94.7312 16.21L87.7807 7.51858C87.6239 7.33898 87.4179 7.2125 87.19 7.15601V2.41832H93.8391C94.4791 2.41832 94.9978 1.87701 94.9978 1.20921C94.9978 0.54141 94.4791 0.000100455 93.8391 0.000100455L93.8401 0ZM14.2841 15.7748H3.63948L8.65473 9.50173L9.28011 9.50089L14.2841 15.7748ZM33.5591 15.7748H22.9144L27.9297 9.50173H28.5438L33.5591 15.7748ZM52.8227 15.7748H42.1894L47.1933 9.50173H47.8187L52.8227 15.7748ZM72.0976 15.7748H61.406L66.4213 9.50173H67.0354L72.0976 15.7748ZM91.3726 15.7748H80.728L85.7318 9.50087H86.3572L91.3726 15.7748Z" fill="#939597"/>
</svg>