<svg width="90" height="90" viewBox="0 0 90 90" fill="none" xmlns="http://www.w3.org/2000/svg">
  <path d="M0.00926424 83.4229V83.4266H0.00549316V83.4229H0.00926424Z" fill="#939597"/>
  <path d="M0.012316 83.4229V83.4266H0.00854492C0.00854492 83.4247 0.00948768 83.4229 0.012316 83.4229Z" fill="#939597"/>
  <path d="M0.0150015 83.4229V83.4266H0.0112305V83.4229H0.0150015Z" fill="#939597"/>
  <path d="M0.017504 83.4229V83.4266H0.0137329V83.4229H0.017504Z" fill="#939597"/>
  <path d="M0.0206778 83.4229V83.4266H0.0169067V83.4229H0.0206778ZM0.0206778 83.4266V83.4229H0.0169067V83.4266H0.0206778Z" fill="#939597"/>
  <path d="M0.0250723 83.4266V83.4229H0.0213013V83.4266H0.0250723ZM0.0213013 83.4229H0.0250723V83.4266H0.0213013V83.4229Z" fill="#939597"/>
  <path d="M0.0251465 83.4229L0.0289176 83.4266H0.0251465V83.4229Z" fill="#939597"/>
  <path d="M0.0369132 83.4229H0.0331421V83.4266H0.0369132V83.4229ZM0.0369132 83.4229V83.4266H0.0331421V83.4229H0.0369132Z" fill="#939597"/>
  <path d="M0.0450308 83.4229V83.4266H0.0412598V83.4229H0.0450308Z" fill="#939597"/>
  <path d="M0.0500968 83.4229H0.0463257V83.4266H0.0500968V83.4229ZM0.0500968 83.4229V83.4266H0.0463257V83.4229H0.0500968Z" fill="#939597"/>
  <path d="M0.0563223 83.4229V83.4266H0.0525513V83.4229H0.0563223Z" fill="#939597"/>
  <path d="M0.00377107 83.4287V83.4325H0V83.4287H0.00377107Z" fill="#939597"/>
  <path d="M0.00816561 83.4287H0.00439453V83.4325H0.00816561V83.4287ZM0.00816561 83.4287V83.4325H0.00439453V83.4287H0.00816561Z" fill="#939597"/>
  <path d="M0.0109499 83.4287H0.0143926V83.4316H0.0109499V83.4287Z" fill="#939597"/>
  <path d="M0.017565 83.4287V83.4325H0.0137939V83.4287H0.017565Z" fill="#939597"/>
  <path d="M0.0225089 83.4287V83.4325H0.0187378V83.4287H0.0225089Z" fill="#939597"/>
  <path d="M0.0231934 83.4287H0.0269644V83.4325L0.0231934 83.4287Z" fill="#939597"/>
  <path d="M0.0306876 83.4287H0.0269165V83.4325H0.0306876V83.4287ZM0.0306876 83.4287V83.4325H0.0269165V83.4287H0.0306876Z" fill="#939597"/>
  <path d="M0.038208 83.4287H0.0419791V83.4325H0.038208V83.4287Z" fill="#939597"/>
  <path d="M0.0475943 83.4287H0.0438232V83.4325H0.0475943V83.4287ZM0.0475943 83.4287V83.4325H0.0438232V83.4287H0.0475943Z" fill="#939597"/>
  <path d="M0.0519278 83.4287V83.4325H0.0481567V83.4287H0.0519278Z" fill="#939597"/>
  <path d="M0.0576041 83.4287V83.4325H0.053833V83.4287H0.0576041Z" fill="#939597"/>
  <path fill-rule="evenodd" clip-rule="evenodd" d="M11.4707 78.4911V73.2993H39.5401C39.8381 73.2993 39.8593 73.7013 39.962 73.9482C40.6429 75.5788 42.6995 77.1011 44.8087 77.1011C46.4491 77.1011 47.7554 76.7997 48.8231 75.8407C49.5034 75.228 49.9059 74.8627 50.2908 74.0003C50.4091 73.7351 50.4335 73.2987 50.7358 73.2987H78.8052V78.4905C78.8052 78.7145 78.7301 78.9286 78.4767 78.9286H11.7982C11.5454 78.9286 11.4697 78.714 11.4697 78.4905L11.4707 78.4911ZM45.1383 57.7964C49.7999 57.7964 53.8498 59.6478 56.19 61.7265C58.5038 63.7836 59.5465 65.1818 60.6043 68.1164C60.8547 68.8108 61.1901 70.2291 61.1901 71.1053H49.4194C47.8941 71.1053 48.381 72.6132 47.8221 73.4894C46.3676 75.7683 42.7669 75.1395 42.1536 72.8061C42.0854 72.5453 42.2368 71.1054 40.858 71.1054H29.0873C29.0873 68.649 30.5768 65.5101 32.2153 63.5741C32.8174 62.8625 33.3375 62.3938 34.0467 61.7633C35.3009 60.6496 36.9106 59.6662 38.6837 59.0079C40.4943 58.3357 42.6236 57.7964 45.1395 57.7964L45.1383 57.7964ZM26.5348 71.1053H19.209L21.4971 64.363C22.1324 62.3138 23.1381 59.8324 23.8184 57.6502L24.9819 54.296C25.0858 54.0208 25.2016 53.2625 25.5471 53.2625H64.7296C65.0851 53.2625 65.4594 54.7992 65.6653 55.3574C65.9407 56.1024 66.2154 56.8791 66.4414 57.593C66.9283 59.1391 67.4828 60.5397 67.9747 62.0797L69.5388 66.5414C69.7898 67.3231 70.0351 68.0042 70.298 68.7919L71.0678 71.1048H63.7419C63.6555 70.7757 63.6906 70.6244 63.6368 70.2469C63.2168 67.1974 62.079 64.8889 60.1857 62.4165C59.5855 61.6348 58.8263 60.9282 58.0828 60.2638L56.3098 58.9128C56.0601 58.7488 55.9086 58.6403 55.642 58.4824C54.7276 57.9437 53.8151 57.4728 52.7924 57.0653C49.1355 55.6092 44.8965 55.1716 40.8564 56.0395C39.5865 56.313 38.6359 56.6611 37.5537 57.0541C33.5914 58.4947 30.3581 61.488 28.4555 64.8406C27.4804 66.5574 26.9509 68.2798 26.6493 70.1829C26.5898 70.5599 26.6205 70.7745 26.5341 71.1042L26.5348 71.1053ZM69.9985 47.3405H70.1637C70.1706 47.6441 74.2094 59.1828 74.2294 59.2306C74.3308 59.5008 74.374 59.6915 74.4735 59.9628C74.5711 60.2291 74.6512 60.4037 74.7389 60.6784C75.503 63.0752 76.5377 65.6566 77.3074 68.1218L78.3113 71.1046H73.7029C73.4551 70.1639 71.9963 66.1981 71.6095 64.9928L67.3616 52.7492C67.1545 52.1165 67.1626 52.3828 67.7196 51.3854C67.9881 50.9056 68.251 50.5158 68.5158 50.0449C68.7636 49.6068 69.0102 49.1676 69.2568 48.7289C69.4408 48.4014 69.9121 47.6687 69.9978 47.3395L69.9985 47.3405ZM16.5738 71.1053H11.9654C11.9905 70.8301 12.1213 70.5883 12.2014 70.3648L13.9751 65.1403C14.4426 63.6753 15.0691 62.1936 15.521 60.7374L16.048 59.2307C16.7953 57.2526 17.3554 55.2782 18.0865 53.2896C18.2598 52.817 20.1043 47.7471 20.1136 47.3406H20.2788C20.3765 47.7115 22.4231 51.1791 22.8906 51.9713C23.1141 52.3505 23.0621 52.3072 22.9338 52.6919L21.3598 57.2948C21.2559 57.5673 21.1908 57.8019 21.0913 58.081L19.225 63.3694C18.6122 65.3442 17.7535 67.5425 17.1158 69.5385C16.9418 70.0851 16.7183 70.5582 16.5738 71.1053ZM21.9249 45.439H68.3527L65.8548 49.8023C65.6934 50.0914 65.2402 51.1427 64.8947 51.1427H25.3838C25.0383 51.1427 24.5851 50.0914 24.4237 49.8023C24.132 49.2858 23.8904 48.856 23.6 48.3395C23.319 47.8414 23.0799 47.3465 22.7645 46.8879C22.4422 46.417 22.2125 45.9194 21.9258 45.439H21.9249ZM19.2912 16.5546H39.5401C40.0365 16.5546 39.6127 17.7182 41.496 19.2049C43.0381 20.423 45.2186 20.7171 47.1852 20.0555C48.3155 19.6752 49.2461 18.9658 49.8663 18.0501C50.5617 17.0238 50.3796 16.5551 50.7357 16.5551H70.9847L70.5753 23.2118C70.5779 23.6149 70.5096 23.6811 70.4909 24.0136L70.4107 25.6976C70.4082 26.0935 70.3344 26.1279 70.3231 26.4977L70.1591 28.9829C70.1473 30.2021 69.9589 31.8817 69.9176 33.2294L69.7974 34.8779C69.743 35.1998 69.7623 35.3766 69.7523 35.7158C69.7417 36.0849 69.6678 36.1188 69.6653 36.5152L69.338 41.4895C69.3443 42.1017 69.2566 42.5609 69.2566 43.2453H21.0183L19.2903 16.5542L19.2912 16.5546ZM18.3849 10.1926H71.8914C72.399 10.1926 72.3652 10.4678 72.5805 11.0432L73.7846 14.4341H57.4851C54.8572 14.4341 51.9224 14.324 49.3325 14.4307C47.9124 14.4897 48.3925 15.7301 47.8567 16.7042C46.7596 18.6951 43.4943 18.6289 42.446 16.7525C42.312 16.5135 42.2476 16.39 42.1693 16.1198C42.0748 15.7924 42.2589 14.4859 40.9426 14.4308C38.3534 14.3241 35.4182 14.4342 32.79 14.4342H16.4905L17.8743 10.5446C17.9739 10.2933 18.0239 10.1932 18.3838 10.1932L18.3849 10.1926ZM13.8573 14.6538C13.8573 15.5528 14.7705 16.5546 15.7512 16.5546H16.7388C16.7388 17.11 16.8502 17.9273 16.8984 18.4594L18.0675 35.9218C18.2346 37.2484 18.1914 38.65 18.3617 39.7548L18.6095 43.631C18.7397 44.441 17.7721 46.7906 17.4272 47.7318L16.6042 50.0718C15.104 54.125 13.7672 58.5221 12.2407 62.6491C11.4859 64.6878 10.8619 66.8534 10.0596 68.9744C9.87059 69.4747 9.70724 69.9946 9.52385 70.5461C9.38678 70.9598 9 71.7882 9 72.2024V78.7102C9 79.9522 10.3694 81.1231 11.5517 81.1231H78.7236C79.3326 81.1231 80.0141 80.7845 80.4447 80.3848C80.8766 79.9856 81.2759 79.4435 81.2759 78.7101V72.2023C81.2759 71.851 79.9146 68.0975 79.6805 67.4766L78.6065 64.3348C78.4313 63.7894 78.2523 63.2717 78.0752 62.7592L73.7117 50.1819C73.3017 48.991 71.5661 44.5699 71.6462 43.7616L72.1864 36.048C72.2439 35.7 72.1932 35.4025 72.2239 35.0589C72.2552 34.7231 72.2959 34.5407 72.299 34.1026C72.3034 33.6856 72.3885 33.5984 72.3866 33.1564C72.3848 32.6877 72.4461 32.4959 72.4674 32.13C72.5043 31.4868 72.4811 30.8029 72.5606 30.1669C72.6226 29.6737 72.7183 28.7897 72.7133 28.2548C72.709 27.72 72.8041 26.8371 72.8661 26.3428L73.1264 22.4071C73.1245 21.8789 73.1965 20.9421 73.2672 20.4839L73.5364 16.5553H74.524C75.5047 16.5553 76.4178 15.5534 76.4178 14.6545C76.4178 14.2681 75.2669 11.2575 75.0497 10.6781C74.6522 9.61895 74.1522 8 72.1375 8H18.1375C16.186 8 15.6528 9.5373 15.2466 10.6231C15.025 11.2114 13.8565 14.2698 13.8565 14.6545L13.8573 14.6538Z" fill="#939597"/>
  <path fill-rule="evenodd" clip-rule="evenodd" d="M53.699 67.6689C53.699 66.2551 56.0041 66.1456 56.0041 67.7412C56.0041 68.9354 53.699 69.0127 53.699 67.6689ZM51.23 67.3754C51.23 68.1821 51.1962 68.34 51.6142 69.0828C52.0029 69.7772 52.5643 70.2737 53.3711 70.5933C54.7574 71.1432 56.3452 70.8602 57.3861 69.9923C59.4884 68.2382 58.502 64.377 54.77 64.377C53.358 64.377 52.2409 65.1253 51.5931 66.1622C51.4241 66.4324 51.2307 66.9856 51.2307 67.3753L51.23 67.3754Z" fill="#939597"/>
  <path fill-rule="evenodd" clip-rule="evenodd" d="M35.5905 66.5712C35.5905 65.7011 36.8072 65.1196 37.592 65.8173C38.6886 66.7914 37.0394 68.2509 35.9429 67.2823C35.792 67.1483 35.5905 66.7975 35.5905 66.5712ZM33.1202 66.499C33.1202 69.2899 36.8861 71.0013 39.3984 68.7851C41.823 66.644 39.6569 63.3555 37.1533 63.3555C35.8271 63.3555 35.1587 63.3927 34.1266 64.3223C33.5983 64.7982 33.1202 65.576 33.1202 66.499Z" fill="#939597"/>
  <path fill-rule="evenodd" clip-rule="evenodd" d="M45.0549 62.8421C45.0549 61.4749 47.3644 61.4482 47.4156 62.7776C47.472 64.2259 45.0549 64.0936 45.0549 62.8421ZM42.5859 62.7687C42.5859 63.7839 43.0478 64.5329 43.6336 65.0554C46.0087 67.1742 49.9118 65.6492 49.9118 62.7687C49.9118 60.9668 48.0886 59.5518 46.2899 59.5518C44.3134 59.5518 42.5861 61.0057 42.5861 62.7687H42.5859Z" fill="#939597"/>
  <path fill-rule="evenodd" clip-rule="evenodd" d="M51.5585 62.1847C51.5585 63.7837 54.1923 63.6109 54.1923 62.4049V62.0391C54.1923 61.1545 52.7002 60.6425 51.9548 61.3664C51.8021 61.5148 51.5592 61.9357 51.5592 62.1847H51.5585Z" fill="#939597"/>
  <path fill-rule="evenodd" clip-rule="evenodd" d="M43.8212 69.6432C43.8212 71.4074 46.4554 71.3891 46.4554 69.6432C46.4554 69.1134 45.8846 68.6191 44.974 68.6191C44.4601 68.6191 43.8212 69.1874 43.8212 69.6432Z" fill="#939597"/>
  <path fill-rule="evenodd" clip-rule="evenodd" d="M40.8571 61.234C40.8571 60.4011 40.6137 59.918 39.3757 59.918C38.8813 59.918 38.4813 60.3172 38.3374 60.6808C38.1452 61.1628 38.3167 61.5815 38.6497 61.8795C39.0052 62.1969 39.407 62.3192 39.9953 62.1552C40.4077 62.0407 40.8565 61.6632 40.8565 61.234H40.8571Z" fill="#939597"/>
</svg>