<svg width="226" height="126" viewBox="0 0 226 126" fill="none" xmlns="http://www.w3.org/2000/svg">
  <path d="M159.84 61.3507H135.18V56.1291C135.427 56.0861 135.652 55.9529 135.816 55.7547L143.253 46.4598V46.4589C143.541 46.0955 143.6 45.5905 143.403 45.1655C143.212 44.7465 142.806 44.4783 142.361 44.4767H125.681C125.231 44.4758 124.822 44.7473 124.63 45.1723C124.44 45.5972 124.501 46.0989 124.789 46.4589L132.213 55.7539L132.214 55.7547C132.38 55.9562 132.61 56.0895 132.862 56.1291V61.3507H95.2055V56.1291C95.4576 56.0895 95.6879 55.9563 95.8543 55.7547L103.279 46.4598V46.4589C103.598 46.1015 103.679 45.5778 103.484 45.1326C103.289 44.6883 102.856 44.41 102.387 44.4286H85.7075C85.2615 44.4303 84.8559 44.6976 84.6644 45.1175C84.4688 45.5424 84.5278 46.0475 84.8154 46.4109L92.2523 55.7058H92.2515C92.4155 55.9048 92.6409 56.0372 92.889 56.0811V61.3508H67.1736C66.5336 61.3508 66.0149 61.8921 66.0149 62.5599V68.6037C66.0149 68.9242 66.1369 69.2319 66.3542 69.4587C66.5716 69.6855 66.8665 69.8128 67.1736 69.8128H71.7259V110.911C71.7259 111.231 71.8479 111.539 72.0652 111.766C72.2826 111.993 72.5767 112.12 72.8845 112.12H154.13C154.438 112.12 154.732 111.993 154.95 111.766C155.167 111.539 155.289 111.231 155.289 110.911V69.8128H159.841C160.148 69.8128 160.443 69.6855 160.661 69.4587C160.878 69.2319 161 68.9241 161 68.6037V62.5599C161 62.2395 160.878 61.9318 160.661 61.705C160.443 61.4782 160.148 61.3508 159.841 61.3508L159.84 61.3507ZM128.149 46.8458H139.883L134.358 53.7725H133.616L128.149 46.8458ZM88.1857 46.8458H99.9196L94.4171 53.7235H93.6753L88.1857 46.8458ZM83.3893 109.701H81.1771L85.2082 87.702H91.3238L83.3893 109.701ZM82.8569 85.2607V78.1655H106.556V85.2734L82.8569 85.2607ZM85.9265 109.701L93.8151 87.6912H95.6105L103.487 109.701H85.9265ZM105.966 109.701L98.0772 87.702H104.24L108.225 109.701H105.966ZM121.025 109.701H118.789L122.774 87.702H128.902L121.025 109.701ZM120.457 85.2715V78.1644H144.11V85.2724L120.457 85.2715ZM123.527 109.701L131.416 87.689L133.199 87.6899L141.087 109.7L123.527 109.701ZM143.624 109.701L135.689 87.702H141.805L145.837 109.701H143.624ZM153.018 109.701H148.188L144.168 87.6912H145.327C145.634 87.6912 145.929 87.5639 146.146 87.3371C146.363 87.1102 146.485 86.8025 146.485 86.4821V76.9568C146.485 76.6364 146.363 76.3287 146.146 76.1019C145.929 75.8759 145.634 75.7486 145.327 75.7486H119.299C118.659 75.7486 118.14 76.2891 118.14 76.9569V86.4821C118.14 86.8025 118.262 87.1103 118.48 87.3371C118.697 87.5639 118.992 87.6912 119.299 87.6912H120.458L116.426 109.701H110.635L106.557 87.6912H107.715C108.022 87.6912 108.317 87.5639 108.535 87.3371C108.752 87.1103 108.874 86.8025 108.874 86.4821V76.9569C108.874 76.6364 108.752 76.3287 108.535 76.1019C108.317 75.8759 108.022 75.7486 107.715 75.7486H81.7456C81.1056 75.7486 80.5869 76.2891 80.5869 76.9569V86.4821C80.5869 86.8025 80.7089 87.1103 80.9263 87.3371C81.1436 87.5639 81.4377 87.6912 81.7456 87.6912H82.9042L78.8262 109.701H74.042V69.8123H152.973L153.018 109.701ZM158.682 67.3948H68.3309V63.7691H158.682V67.3948Z" fill="#939597"/>
  <path d="M159.84 13H67.172C66.532 13 66.0133 13.5413 66.0133 14.2091C66.0133 14.8769 66.532 15.4182 67.172 15.4182H73.8098V20.1568V20.1559C73.5819 20.2124 73.3758 20.3389 73.2183 20.5185L66.2678 29.2099H66.2686C65.9793 29.5725 65.9179 30.0767 66.1126 30.5025C66.3066 30.9283 66.7202 31.1981 67.1719 31.1922H82.7631C83.2116 31.1888 83.618 30.9157 83.8055 30.4915C83.997 30.07 83.938 29.5708 83.6552 29.2099L76.7046 20.5185H76.7055C76.5544 20.3364 76.3516 20.2091 76.1261 20.1559V15.4182H93.0724V20.1568V20.156C92.847 20.2091 92.6441 20.3364 92.493 20.5185L85.5425 29.2099H85.5433C85.2565 29.5683 85.1935 30.0675 85.3809 30.4916C85.5708 30.9199 85.9829 31.1931 86.4354 31.1922H102.027C102.477 31.1931 102.885 30.9224 103.077 30.4975C103.268 30.0725 103.206 29.5708 102.919 29.2099L95.9681 20.5185C95.8154 20.333 95.6077 20.2057 95.3774 20.156V15.4183H112.347V20.1568V20.156C112.122 20.2091 111.919 20.3364 111.769 20.5185L104.818 29.21C104.53 29.5708 104.468 30.0725 104.66 30.4975C104.85 30.9224 105.26 31.1931 105.71 31.1923H121.301C121.751 31.1931 122.161 30.9224 122.352 30.4975C122.543 30.0725 122.481 29.5708 122.193 29.21L115.243 20.5185C115.092 20.3364 114.889 20.2091 114.664 20.156V15.4183H131.622V20.1568V20.156C131.392 20.2057 131.185 20.3331 131.031 20.5186L124.08 29.21H124.081C123.794 29.5709 123.731 30.0725 123.923 30.4975C124.114 30.9225 124.523 31.1931 124.973 31.1923H140.565C141.017 31.1931 141.428 30.9199 141.618 30.4916C141.806 30.0675 141.743 29.5683 141.457 29.21L134.506 20.5186C134.356 20.3364 134.152 20.2091 133.927 20.156V15.4183H150.885V20.1569V20.156C150.66 20.2091 150.457 20.3365 150.306 20.5186L143.355 29.21H143.356C143.073 29.5709 143.014 30.07 143.206 30.4916C143.393 30.9157 143.8 31.1889 144.248 31.1923H159.839C160.289 31.1931 160.698 30.9225 160.89 30.4975C161.081 30.0725 161.019 29.5709 160.731 29.21L153.781 20.5186C153.624 20.339 153.418 20.2125 153.19 20.156V15.4183H159.839C160.479 15.4183 160.998 14.877 160.998 14.2092C160.998 13.5414 160.479 13.0001 159.839 13.0001L159.84 13ZM80.2841 28.7748H69.6395L74.6547 22.5017L75.2801 22.5009L80.2841 28.7748ZM99.5591 28.7748H88.9144L93.9297 22.5017H94.5438L99.5591 28.7748ZM118.823 28.7748H108.189L113.193 22.5017H113.819L118.823 28.7748ZM138.098 28.7748H127.406L132.421 22.5017H133.035L138.098 28.7748ZM157.373 28.7748H146.728L151.732 22.5009H152.357L157.373 28.7748Z" fill="#939597"/>
</svg>