<svg width="226" height="126" viewBox="0 0 226 126" fill="none" xmlns="http://www.w3.org/2000/svg">
  <path fill-rule="evenodd" clip-rule="evenodd" d="M78.5034 21.4888L79.5405 13.6458C79.6656 12.7063 80.5101 12 81.5117 12H146.742C147.745 12 148.59 12.7063 148.713 13.6458L149.75 21.4888H153.013C154.112 21.4888 155 22.331 155 23.3678V29.9476C155 30.9266 154.205 31.7419 153.172 31.8208C152.039 31.9055 150.906 31.986 149.774 32.0632L138.676 109.022C138.562 109.804 137.945 110.437 137.128 110.604C121.377 113.823 105.628 113.774 89.8802 110.606C89.0596 110.44 88.4377 109.807 88.3241 109.022L81.5499 62.041L79.9682 51.7276C79.938 51.5305 79.9425 51.3309 79.9779 51.1396L77.2261 32.0603C76.095 31.9848 74.9648 31.9043 73.8319 31.8221C72.7984 31.7449 72 30.9296 72 29.949V23.3691C72 22.3323 72.8907 21.4901 73.9872 21.4901H78.5046L78.5034 21.4888ZM140.799 66.4899H86.2024L92.0727 107.194C106.358 109.9 120.643 109.941 134.928 107.2L140.799 66.4899ZM84.306 53.337L85.4842 61.5165L85.6713 62.732H140.704L142.143 53.337L84.306 53.337ZM143.236 49.579L145.692 32.5574C124.926 34.1998 103.514 34.3181 81.3096 32.5591L83.7635 49.579L143.236 49.579ZM151.026 28.2074V25.2463H75.9737V28.2057C100.992 29.9697 126.01 29.9966 151.026 28.2074ZM83.2661 15.7573L82.5094 21.4883H145.745L144.986 15.7573H83.2661Z" fill="#939597"/>
</svg>