<svg width="226" height="126" viewBox="0 0 226 126" fill="none" xmlns="http://www.w3.org/2000/svg">
  <path d="M63.7627 39.8832C67.3558 37.8516 80.8222 33.507 105.943 32.3818C117.503 32.0692 140.999 31.6316 142.499 32.3818M63.7627 39.8832C60.0134 43.634 75.9481 52.073 114.379 50.1977C145.123 48.6974 152.497 47.072 152.341 46.4469M63.7627 39.8832C61.1069 42.6962 55.9829 50.3852 56.7327 58.6368C55.843 59.0324 54.6623 59.6095 53.4521 60.2849M142.499 32.3818C143.998 33.1319 149.685 42.0711 152.341 46.4469M142.499 32.3818C146.248 30.1314 153.747 29.8813 157.027 30.0375M152.341 46.4469C154.372 42.0711 158.152 32.663 157.027 30.0375M152.341 46.4469C153.091 47.67 158.277 45.0812 160.777 43.6339M157.027 30.0375C158.277 30.0375 160.777 31.2565 160.777 36.1325V43.6339M160.777 43.6339C163.776 42.0899 167.338 57.3684 168.744 65.2006M47.8281 65.2006C47.3594 68.0136 61.4194 84.8919 118.597 84.8919C164.339 84.8919 177.649 74.5774 178.586 69.4201M47.8281 65.2006C48.0844 63.6622 50.8373 61.7441 53.4521 60.2849M47.8281 65.2006C47.2032 69.5764 46.3284 78.7969 47.8281 80.6723C49.7027 83.0165 77.354 97.0817 119.534 94.7375C153.278 92.8621 172.962 85.2044 178.586 81.61C178.898 78.9532 179.336 72.7958 178.586 69.4201M178.586 69.4201C177.961 68.0136 175.118 65.2006 168.744 65.2006M168.744 65.2006C168.275 69.1076 156.746 77.2966 114.379 78.7969C72.0113 80.2972 56.1078 67.0807 53.4521 60.2849" stroke="#939597" stroke-width="3" stroke-linecap="round" stroke-linejoin="round"/>
</svg>