<svg width="226" height="126" viewBox="0 0 226 126" fill="none" xmlns="http://www.w3.org/2000/svg">
  <path d="M83.5888 14.5014H83.0888V14.5465C81.8929 14.7613 80.996 15.7378 80.996 16.9955V20.9969C80.996 22.4196 82.1457 23.5052 83.5888 23.5052L142.397 23.5043C143.835 23.5043 145.005 22.4236 145.005 20.996V16.9946C145.005 15.5632 143.83 14.5014 142.397 14.5014H83.5888ZM77.7944 16.9946C77.7944 14.0036 80.3865 11.5 83.5888 11.5C83.5888 11.5 83.5888 11.5 83.5888 11.5L142.397 11.5009C145.6 11.5009 148.207 14.0053 148.207 16.9955V20.9961C148.207 23.9877 145.599 26.5058 142.397 26.5058H83.5888C80.389 26.5058 77.7944 23.9895 77.7944 20.9961V16.9946Z" fill="#939597" stroke="#939597"/>
  <path d="M71.5001 50.9998L71.5001 50.995C71.498 50.7809 71.5442 50.569 71.6366 50.374C71.6368 50.3734 71.6371 50.3729 71.6373 50.3724L84.0298 24.8065L86.9286 26.0858L74.7515 51.223L74.7015 51.3262L74.7015 51.4409L74.7006 107.005C74.7006 109.535 76.7867 111.506 79.387 111.506H146.596C149.194 111.506 151.297 109.537 151.297 107.005V51.4409V51.3262L151.247 51.223L139.07 26.0858L141.969 24.8065L154.362 50.3724C154.362 50.3729 154.362 50.3734 154.362 50.374C154.455 50.57 154.502 50.782 154.5 50.995V50.9998V107.007C154.5 111.104 150.959 114.51 146.597 114.51H79.388C75.0272 114.51 71.5001 111.105 71.5001 107.007L71.5001 50.9998Z" fill="#939597" stroke="#939597"/>
  <path d="M126.104 50.9998L126.104 50.995C126.102 50.782 126.149 50.57 126.241 50.374C126.242 50.3735 126.242 50.3729 126.242 50.3724L138.635 24.8068L141.533 26.0879L129.356 51.2253L129.306 51.3286V51.4433V112.517H126.104L126.104 50.9998Z" fill="#939597" stroke="#939597"/>
  <path d="M141.897 96.5087L141.897 97.0087C141.091 97.0084 139.516 97.0079 138.71 97.0082V96.5082M141.897 96.5087L142.217 96.5088L142.35 96.5089L142.385 96.5089L142.394 96.5089H142.396H142.397L142.396 63.0044C142.401 61.8998 141.464 61.0006 140.303 60.9961M141.897 96.5087L141.896 63.0044V63.0023H141.896C141.899 62.1973 141.21 61.5005 140.303 61.4961M141.897 96.5087L141.742 96.5086L140.301 96.5082C139.777 96.5081 139.254 96.5081 138.861 96.5081L138.71 96.5082M140.303 60.9961C139.142 60.9997 138.206 61.8989 138.21 63.0044V96.5088L138.219 96.5087L138.255 96.5086L138.388 96.5084L138.71 96.5082M140.303 60.9961L140.301 61.4961C140.302 61.4961 140.302 61.4961 140.303 61.4961M140.303 60.9961L140.305 61.4961C140.304 61.4961 140.304 61.4961 140.303 61.4961M138.71 96.5082V63.0044H138.71L138.71 63.0023C138.707 62.1962 139.396 61.4998 140.303 61.4961" fill="#939597" stroke="#939597"/>
  <path d="M126.742 111.706L140.342 94.4509L151.806 109.724L149.208 111.494L140.658 100.093L140.267 99.5725L139.865 100.084L129.292 113.529L126.742 111.706Z" fill="#939597" stroke="#939597"/>
</svg>