<svg width="90" height="90" viewBox="0 0 90 90" fill="none" xmlns="http://www.w3.org/2000/svg">
  <path fill-rule="evenodd" clip-rule="evenodd" d="M19.3496 12.9891L20.0952 7.05242C20.1852 6.34128 20.7924 5.80664 21.5125 5.80664H68.4104C69.1317 5.80664 69.7389 6.34128 69.8276 7.05242L70.5732 12.9891H72.9191C73.7093 12.9891 74.3478 13.6266 74.3478 14.4114V19.392C74.3478 20.133 73.7763 20.7502 73.0332 20.8099C72.2188 20.874 71.4043 20.935 70.5904 20.9934L62.6113 79.2471C62.5296 79.8389 62.0857 80.3183 61.4983 80.4447C50.1743 82.8809 38.851 82.8442 27.5291 80.4459C26.9391 80.3208 26.492 79.8414 26.4103 79.2471L21.5399 43.685L20.4027 35.8784C20.381 35.7291 20.3842 35.578 20.4097 35.4333L18.4312 20.9912C17.618 20.9341 16.8054 20.8731 15.991 20.8109C15.2479 20.7525 14.6739 20.1353 14.6739 19.3931V14.4124C14.6739 13.6276 15.3143 12.9901 16.1026 12.9901H19.3505L19.3496 12.9891ZM64.1379 47.0526H24.8849L29.1054 77.8634C39.3762 79.9119 49.6463 79.9429 59.9167 77.8679L64.1379 47.0526ZM23.5215 37.0965L24.3685 43.288L24.5031 44.208H64.0696L65.1041 37.0966L23.5215 37.0965ZM65.8899 34.252L67.656 21.3675C52.7258 22.6107 37.3312 22.7002 21.3671 21.3688L23.1314 34.2519L65.8899 34.252ZM71.4907 18.0748V15.8334H17.5308V18.0735C35.518 19.4088 53.5051 19.4291 71.4907 18.0748ZM22.7738 8.65075L22.2297 12.9888H67.694L67.148 8.65075H22.7738Z" fill="#939597"/>
</svg>